<?xml version="1.0" encoding="utf-8"?>
<!-- Generator: Adobe Illustrator 25.0.0, SVG Export Plug-In . SVG Version: 6.00 Build 0)  -->
<svg version="1.1" id="Camada_1" xmlns="http://www.w3.org/2000/svg" xmlns:xlink="http://www.w3.org/1999/xlink" x="0px" y="0px"
	 viewBox="0 0 452.9 433.1" style="enable-background:new 0 0 452.9 433.1;" xml:space="preserve">
<style type="text/css">
	.st0{fill:#263238;}
	.st1{fill:none;stroke:#00FF6A;stroke-miterlimit:10;}
	.st2{stroke:#000000;stroke-miterlimit:10;}
	.st3{fill:none;stroke:#333333;stroke-linecap:round;stroke-linejoin:round;}
	.st4{fill:#FFFFFF;stroke:#212121;stroke-linecap:round;stroke-linejoin:round;}
	.st5{fill:#00FF6A;stroke:#212121;stroke-miterlimit:10;}
	.st6{fill:#00FF6A;stroke:#212121;stroke-linecap:round;stroke-linejoin:round;stroke-miterlimit:10;}
	.st7{fill:none;stroke:#212121;stroke-linecap:round;stroke-linejoin:round;}
	.st8{fill:none;stroke:#263238;stroke-linecap:round;stroke-linejoin:round;}
	.st9{fill:#333333;stroke:#000000;stroke-linecap:round;stroke-linejoin:round;}
	.st10{fill:#FFFFFF;stroke:#263238;stroke-linecap:round;stroke-linejoin:round;}
	.st11{fill:#FFFFFF;stroke:#000000;stroke-linecap:round;stroke-linejoin:round;}
	.st12{fill:none;stroke:#000000;stroke-linecap:round;stroke-linejoin:round;}
	.st13{fill:#263238;stroke:#263238;stroke-linecap:round;stroke-linejoin:round;}
	.st14{fill:none;stroke:#263238;stroke-linecap:round;stroke-miterlimit:1;}
	.st15{fill:#838383;stroke:#333333;stroke-linecap:round;stroke-linejoin:round;}
	.st16{fill:#878787;stroke:#263238;stroke-linecap:round;stroke-linejoin:round;}
	.st17{fill:#B8B8B8;stroke:#263238;stroke-linecap:round;stroke-linejoin:round;}
	.st18{fill:#202020;}
	.st19{fill:#FFFFFF;}
	.st20{fill:none;stroke:#000000;stroke-width:5;stroke-miterlimit:10;}
	.st21{fill:#00FF6A;}
</style>
<g id="freepik--background-simple--inject-3">
	<path class="st0" d="M410.8,220.8L410.8,220.8C410.8,220.8,410.8,220.9,410.8,220.8z"/>
	<path class="st0" d="M410.8,220.8L410.8,220.8z"/>
	<path class="st0" d="M380.1,254.5l-0.1,0l0,0C380,254.5,380.3,254.7,380.1,254.5z"/>
	<path class="st0" d="M404.8,230.4c0,0.1,0.1,0.1,0.3,0C404.9,230.3,404.8,230.3,404.8,230.4z"/>
	<path class="st0" d="M394.2,243.9c0,0.1,0.1,0.1,0.2,0.1C394.3,243.9,394.3,243.8,394.2,243.9z"/>
	<path class="st0" d="M380.1,254.7c0.2,0.2,0,0-0.1-0.2C379.9,254.5,380,254.6,380.1,254.7z"/>
</g>
<g id="freepik--Graphics--inject-3">
	<line class="st1" x1="135.5" y1="16.2" x2="145.4" y2="26.1"/>
	<line class="st1" x1="145.4" y1="16.2" x2="135.5" y2="26.1"/>
	<line class="st1" x1="330.5" y1="235.2" x2="340.4" y2="245.1"/>
	<line class="st1" x1="340.4" y1="235.2" x2="330.5" y2="245.1"/>
	<line class="st1" x1="422.5" y1="53.2" x2="432.4" y2="63.1"/>
	<line class="st1" x1="432.4" y1="53.2" x2="422.5" y2="63.1"/>
	<line class="st1" x1="289.5" y1="2.2" x2="299.4" y2="12.1"/>
	<line class="st1" x1="299.4" y1="2.2" x2="289.5" y2="12.1"/>
	<line class="st1" x1="4.5" y1="261.2" x2="14.4" y2="271.1"/>
	<line class="st1" x1="14.4" y1="261.2" x2="4.5" y2="271.1"/>
	<line class="st1" x1="188.5" y1="345.2" x2="198.4" y2="355.1"/>
	<line class="st1" x1="198.4" y1="345.2" x2="188.5" y2="355.1"/>
	<circle class="st1" cx="167.5" cy="18.1" r="10"/>
	<circle class="st1" cx="147.5" cy="54.1" r="4"/>
	<circle class="st1" cx="128.5" cy="308.1" r="7"/>
	<circle class="st1" cx="446" cy="238.6" r="4.5"/>
	<circle class="st1" cx="321.5" cy="193.1" r="4"/>
	<circle class="st1" cx="148" cy="209.6" r="4.5"/>
</g>
<g id="freepik--Character--inject-3">
	<path class="st2" d="M112,78.5c0,0,8.7,6.3,8.5,14.7s-5.5,10.6-4.6,14.5s5.2,9.6,2.2,12.3s-10.1,0.6-11.7,2.5s-1.1,6.6-6.3,7.6
		s-8.7,0.3-12.6-5.2s-6-23.5,2.7-35.2C95.3,82.8,103.4,78.6,112,78.5z"/>
	<path class="st3" d="M116.1,96c0.2,2.3,0.1,4.5-1.1,5.7c-3,3-4.7,5.4-1.7,8.4s7.8,7.8,3.7,9.1"/>
	<path class="st3" d="M114.3,88.4c0.4,1.2,0.8,2.4,1.1,3.7"/>
	<path class="st4" d="M82.2,399.4c0.4,3.5,1.1,7,1.9,10.4c1.6,5,3.6,9.9,5.9,14.7c1.6,3.1,6.5,5.9,6.8,6.8s-1,1.5-3,1.6
		s-14.8,0-14.8,0c-0.8-1-1.3-2.2-1.5-3.4c-0.6-2.6-1.5-5.2-2.7-7.6c-0.8-1.4-1.6-2.7-2.6-3.9V433h-1.9c0,0-1.3-13.7-1.5-14.4
		s-1.8-3.1-1.6-6.7s1.5-5.2,2.4-5.8c0.7-0.5,1.2-1.2,1.6-1.9l0.1-6.1l11-0.4L82.2,399.4z"/>
	<path class="st5" d="M69.6,406.1c-0.9,0.6-2.2,2.2-2.4,5.8s1.5,5.9,1.6,6.7s1.5,14.4,1.5,14.4h1.9v-14.9c1,1.2,1.9,2.5,2.7,3.9
		c1.2,2.4,2.1,5,2.7,7.6c0.2,1.2,0.7,2.4,1.5,3.4c0,0,12.9,0.1,14.8,0s3.3-0.7,3-1.6c-0.2-0.7-3.1-2.5-5.2-4.7
		c-0.5,0.1-1,0.2-1.4,0.4c-3,0.9-6.8-0.4-7.9-1.8s-7.7-10.1-9.8-14.1c-1.2-2.1-1.7-4.6-1.3-7C70.9,404.9,70.3,405.6,69.6,406.1z"/>
	<path class="st4" d="M54.3,399.4c0.4,3.5,1.1,7,1.9,10.4c1.6,5,3.6,9.9,5.9,14.7c1.6,3.1,6.5,5.9,6.8,6.8s-1,1.5-3,1.6
		s-14.8,0-14.8,0c-0.8-1-1.3-2.2-1.5-3.4c-0.6-2.6-1.5-5.2-2.7-7.6c-0.8-1.4-1.6-2.7-2.6-3.9V433h-1.9c0,0-1.3-13.7-1.5-14.4
		s-1.8-3.1-1.6-6.7s1.5-5.2,2.4-5.8c0.7-0.5,1.2-1.2,1.6-1.9l0.2-6.1l11-0.4L54.3,399.4z"/>
	<path class="st5" d="M41.7,406.1c-0.9,0.6-2.2,2.2-2.4,5.8s1.5,5.9,1.6,6.7s1.5,14.4,1.5,14.4h1.9v-14.9c1,1.2,1.9,2.5,2.7,3.9
		c1.2,2.4,2.1,5,2.7,7.6c0.2,1.2,0.7,2.4,1.5,3.4c0,0,12.9,0.1,14.8,0s3.3-0.7,3-1.6c-0.2-0.7-3.1-2.5-5.2-4.7l-1.4,0.4
		c-3,0.9-6.8-0.4-7.9-1.8s-7.7-10.1-9.8-14.1c-1.2-2.1-1.7-4.6-1.3-7C42.9,404.9,42.3,405.6,41.7,406.1z"/>
	<path d="M33.2,268.3c0,0,5.3,38,5,52.7s-5.4,30.9-4.7,47c0.5,10.2,1.6,20.3,3.3,30.3c0,0-0.3,2,7,2.3c4.5,0.2,9-0.4,13.3-1.7
		c0,0,1-39.3,4.3-57.7s8-44.3,8-52.3v-15.7L33.2,268.3z"/>
	<path d="M71.8,274.3c0,0-4,48.3-4.7,63s-1,36.7-0.7,41s1.7,21.3,1.7,21.3c2.7,1.5,5.6,2.4,8.7,2.7c4.7,0.3,10.3-2.3,10.3-2.3
		s4.7-60,5.3-65.7s1.7-10.3,1.7-10.3s12.2-41.7,12.2-53.6L71.8,274.3z"/>
	<path class="st6" d="M61.8,115.3c0,0-21.3,9-22.1,12.6s3.5,61.4,3.5,61.4s0,14.5-1.4,19.4s-9,15.6-11.7,25.7s-3.8,35.8-3.8,35.8
		s16.1,6.8,27.3,7.9s13.9,1.1,13.9,1.1v1.6c8,0.3,16,0,24-0.8c12.3-1.4,26.7-8.7,26.7-8.7s-2.7-36.9-4.6-47.5s-7.9-24-8.7-28.1
		s1.9-35.4,1.9-35.4l20.6,10.2c0,0,11.6,4.7,16-1.5s1.4-10.6-3.3-13.9s-22.9-16.6-29.8-22.6s-17.7-8.7-21.6-9.3s-8.3-11-8.3-11
		S65.6,115.6,61.8,115.3z"/>
	<line class="st7" x1="65.2" y1="161.9" x2="72.2" y2="168"/>
	<polyline class="st7" points="55.8,121.7 52.5,143 63.5,147 55.2,153 63.5,160.3 	"/>
	<line class="st8" x1="67.2" y1="272" x2="67.5" y2="275.7"/>
	<polyline class="st7" points="77.4,154.9 64.2,188.7 63.2,215 67,268.4 	"/>
	<path class="st9" d="M69.2,212.7c0-1.3-1-2.3-2.3-2.3c-1.3,0-2.3,1-2.3,2.3c0,1.3,1,2.3,2.3,2.3h0C68.1,215,69.2,214,69.2,212.7z"
		/>
	<path class="st9" d="M88.2,211.3c0-1.3-1-2.3-2.3-2.3s-2.3,1-2.3,2.3c0,1.3,1,2.3,2.3,2.3c0,0,0,0,0,0
		C87.1,213.7,88.2,212.6,88.2,211.3C88.2,211.3,88.2,211.3,88.2,211.3z"/>
	<path class="st9" d="M86.5,191.3c0-1.3-1-2.3-2.3-2.3s-2.3,1-2.3,2.3c0,1.3,1,2.3,2.3,2.3c0,0,0,0,0,0
		C85.4,193.7,86.5,192.6,86.5,191.3L86.5,191.3z"/>
	<path class="st9" d="M70.8,190c0-1.3-1-2.3-2.3-2.3s-2.3,1-2.3,2.3c0,1.3,1,2.3,2.3,2.3C69.8,192.3,70.8,191.3,70.8,190L70.8,190z"
		/>
	<line class="st8" x1="98" y1="133.5" x2="94.5" y2="125.3"/>
	<polyline class="st7" points="69.8,185.7 98.8,149.3 89.8,145.3 100.8,140 98.9,135.6 	"/>
	<line class="st7" x1="106.8" y1="160.2" x2="105.8" y2="148.3"/>
	<path class="st10" d="M61.8,115.3c0,0,2.7,13.1,5.7,21s9.8,18.6,9.8,18.6L88.8,123c0,0-12.8-9.3-18-11.2S61.8,115.3,61.8,115.3z"/>
	<path class="st7" d="M67.5,136.4c3,7.9,9.8,18.6,9.8,18.6l7.3-20.4c-1.3,0.3-2.7,0.6-4,0.7c-5.1,0.6-10.3-0.6-14.6-3.4
		C66.5,133.5,67,135,67.5,136.4z"/>
	<path class="st8" d="M82.7,124.8c-2.1,1.2-3.3,3.7-2.8,6.1"/>
	<path class="st11" d="M108.5,84.8c0,0-4.6,6.3,2,16.6c2.6,4.1-3.3,4.4-3.9,7.4s-1.6,5.2-4.6,8.7s-7.4,7.6-9.8,9
		c-2.8,1.4-6.1,1-8.5-1.1c-2.5-2.2-6-7.4-7.4-9.3s-7.4-7.6-3.8-14.7S81.2,90,90.2,84S108.5,84.8,108.5,84.8z"/>
	<path class="st12" d="M107.9,103.6c-1.3,0-2.7,0.4-3.8,1.1c-1.6,1.1-2.4,10.1-4.4,12.6s-4.6-0.6-4.6-0.6"/>
	<path class="st12" d="M93.7,120.3c-1.8-0.7-3.3-2-4.1-3.8"/>
	<path class="st12" d="M95.9,103.9l-2.2,2.5c0,0-4,0.8-4.8-3"/>
	<path class="st12" d="M94.4,107.6c0,0-2.5,0.6-4.9-2.6"/>
	<path class="st12" d="M103.5,109.2c0.6,0.4,1.2,0.6,1.9,0.9l1.3-3.2"/>
	<line class="st12" x1="103.3" y1="110.1" x2="105.4" y2="110.9"/>
	<path class="st12" d="M92.9,98.7c2.5,0.1,4.9,1.2,6.6,3"/>
	<path class="st5" d="M46.6,120.8c0,0-10.1,1.1-13.9,3.6s-13.4,38.5-16.1,44.8s-5.2,19.9-4.1,22.1s9,3.6,13.7,3s7.4-4.4,8.7-8.7
		S46,156.3,46,156.3"/>
	<path class="st13" d="M107.3,165.5c1,0.1,1.9,0.7,2.4,1.7c1,1.7,0.9,6.9,0.9,6.9l5-1.2c0.4-1.5,0.3-3.1-0.2-4.6
		c-0.9-2.3-1.5-2.5-1.5-2.5L107.3,165.5z"/>
	<path class="st4" d="M94,155.9c0,0,9.7,2.2,10.6,3s3.9,5.7,3.9,6.4s-1.3,0.9-1.9,0.6s-2.8-3.3-2.8-3.3l-5.8-1.5
		C97.9,161,94.2,157.5,94,155.9z"/>
	<path class="st4" d="M72.2,177.8l3.9-5.4c0,0,4.5-11,5.4-11.6s11.7-5.2,12.6-4.9s5,6.4,5.1,7.2s0.3,3,0.3,3s-15,12-16.3,13.4
		s-5.2,3.1-5.2,3.1l-5.8,5.4C70.8,184.7,70.8,181.1,72.2,177.8z"/>
	<line class="st8" x1="86.8" y1="160.1" x2="93.3" y2="169.4"/>
	<line class="st14" x1="84" y1="165.7" x2="85.6" y2="168.3"/>
	<line class="st8" x1="91.8" y1="158.1" x2="97.6" y2="166.9"/>
	<path class="st5" d="M23.1,183.3c0,0,21.4-1.6,28.8-2.7s19.5-2.5,19.5-2.5c0.1,2.8,0.3,5.5,0.8,8.2c0.3,1.2,0.7,2.4,1.4,3.6
		c0,0-26.9,7.1-35.1,9.8s-15.6,5.7-22.1,3.3s-5.7-10.6-5.2-15s3.2-11.9,3.2-11.9"/>
	<path class="st2" d="M112,86.9c-2.5,2.5-6,3.6-9.5,3c-5.7-1.1-7.1-3.3-9,0.3s-3.8,9-6.6,9.6s-6.3-0.3-7.7,2.2
		c-1.4,2.5,1.6,15.8-2.2,17.7s-13.4-2.2-15,0.8s0,8.7-5.2,10.9s-16.7,0-20.5-3.6s-1.4-11.5-1.1-13.6c0.3-2.2-3.8-4.9-2.2-10.9
		c1.6-6,7.9-6,7.9-10.1s-1.6-9,1.6-12.3s6.3-2.2,9.3-3.8s5.7-5.7,9.5-12.8s21.9-10.9,31.7-8.5s20.1,13.3,22.3,17.9
		S115.8,86.1,112,86.9z"/>
	<path class="st3" d="M91.9,80.7c-1.9,0.5-3.6,1.4-4,3c-1,4.4-7.4,12.5-9.8,12.8s-11.2,0.7-12.2,3.4s-1.7,11.2-4.4,11.8
		s-11.8-1.3-15.9,3.4S46,128,49,128.6s6.8-2.7,6.8-5.4s-6.8-3.7-6.8-1"/>
	<path class="st3" d="M99.1,80.3c-1-0.1-2-0.1-3-0.1"/>
	<path class="st3" d="M37.6,106.8c-0.4,0.2-0.8,0.5-1.1,0.9l-1.7,2.7"/>
	<path class="st3" d="M68.8,82c-6.5,3.2-20.9,2.5-22.4,7.1c-1.7,5.1,4,15.9,2.4,16.6c-1.2,0.5-5.8,0-9,0.5"/>
	<path class="st3" d="M102.5,70.2c0,0-11.8-6.1-21-4.4c-8,1.5-6.4,8.7-9.5,13.4"/>
	<path class="st3" d="M89.9,71.2c0,0,9.5,0,13.9,2.7c4.4,2.7,7.8,6.1,7.8,7.8"/>
	<path class="st4" d="M92.1,177.1c0,0,5,0.1,7.2,0.1c2.2,0,6.4-3.1,5.7-6.1c-1.3-0.7-2.8-1.2-4.2-1.6c-2.1-0.4-13.9,4.2-13.3,6.2
		S92.1,177.1,92.1,177.1z"/>
	<path class="st4" d="M113.9,165.8c0,0-7.6-0.6-10.1-0.6s-7.1-1.6-9-1.6s-9.6,4.9-11.2,5.5s-2.7,8.2-2.7,9.3s0.8,4.4,1.9,4.6
		s1.4-0.6,1.1-1.6S85,177,85,177l3-2.2c0,0,9-0.3,10.4-0.3s4.1,0.8,7.4,1.1s6-2.5,6-2.5l3.8-0.3
		C115.6,172.9,116.1,170.5,113.9,165.8z"/>
	<path class="st4" d="M89.1,167c0,0-4.4,4.1-4.5,5.1s-1.6,9.6-1.1,10.5s1.3,2.1,2.1,1.7s0.8-3.4,0.8-4.4s1.4-4.3,1.6-5.1
		s3.6-4.4,3.6-4.4l2.4-2.4"/>
	<path class="st4" d="M91.9,166.5c0,0-4.7,4.5-4.9,5.5s-1.7,10.5-1.2,11.4s1.4,2.3,2.3,1.9s0.9-3.7,0.9-4.8s1.5-4.7,1.7-5.5
		s3.9-4.8,3.9-4.8l2.6-2.6"/>
	<path class="st4" d="M100.7,174.7c-0.4,0-0.9,0-1.3,0c-1.8,0.3-3.5,0.8-5.1,1.6c0,0-3.1,6.6-3.7,6.8s-1.7-0.4-1.3-1.3
		s2.1-8.8,3.1-9.7c1.8-1.1,3.7-2.1,5.7-3"/>
	<path class="st6" d="M139.9,159.3l-26.2,5.5c0,0,0,9.8-0.5,12.3l-0.6,2.5c0,0,16.9,0,22.1-0.6s12.6-0.8,14.7-5.5s-1.4-12-3.3-13.9
		c-0.8-0.9-2.3-1.8-3.3-2.4"/>
	<path class="st15" d="M105.9,165.5l3.1,2.7l6.9-0.4l-0.1-1.1l-4.1-3l-5.7,0.3C106.1,163.9,105.5,165.2,105.9,165.5z"/>
</g>
<g id="freepik--Device--inject-3">
	<path class="st16" d="M306.7,107.1h0.1c0,0-4.2-10-12.3-15.3s-21-4.5-21-4.5s-70.7,2.2-82.5,3.6s-17.3,7-17.3,7l-4.4,9.2h18.8
		c-1.8,3.3-2.8,6.9-2.8,10.7v150.3c0,6.3,2.6,12.3,7.2,16.6l-25.1-0.9c0,0,8.4,9.2,15.4,11.5s20.1,2.5,20.1,2.5l82.2,2.8
		c0,0,4.8-0.6,7.5-3.1c1.7-1.9,3.2-3.9,4.3-6.2c7-4.1,11.3-11.6,11.3-19.7l0.5-155.3C308.7,113.1,308,110,306.7,107.1z"/>
	<path class="st4" d="M436.5,96.8c-1.7-7.8-32.7-45-54.5-57.9s-30.8-15.4-71.3-13.7S234.4,42.9,219.3,61
		c-9.4,11.2-20,21.3-31.6,30.2c0,0,89.2-3.4,92-3.4s7.5,3.4,11.5,9.5s8.4,10.9,12.3,9.8c2.2-0.6,2.2-2.5,1.8-4
		c-0.3-1.2-1-2.3-1.8-3.2c-10.2-11-9.5-18.8-9.5-18.8c2-10.9,11.2-19.6,11.2-19.6c17.3,11.2,27.1,29.3,27.1,29.3s-0.8,8.1-2.5,19.6
		s-1.4,21.8,2,27.1s11.5,16.2,15.9,34.7s3.1,36.3,3.1,51.7s3.9,25.7,3.9,25.7s-2.2,16.5-13.7,44.7s-30.2,42.5-30.2,42.5
		c-13.4-10.9-17.9-28.2-17.9-34.1s6.1-11.7,8.9-15.1s5-7.3,0.6-7s-8.7,9.2-12.6,14.3c-2.2,2.9-5.8,4.6-9.5,4.5l-91.4-2.8
		c3.9,2.4,7.5,5.3,10.7,8.7c5.6,5.9,15.1,21.5,29.4,32.7s26.6,20.7,51.7,25.2s52,5,70.7,1.4c16.6-3.3,31.8-11.7,43.3-24
		c9.5-10.4,22.1-30.8,30.2-57.9s9.5-43.9,11.2-69.9s-5.3-73.2-5.3-73.2s4.8-14.2,6.4-23.2S438.2,104.6,436.5,96.8z M422.2,119.2
		l-6.9,3.3c0,0-60.8,7.5-66.7,4.9s-3.6-11.1-3.6-11.1l71.6-16.3c0,0,7.2,2,7.9,8.2C424.8,111.9,424.1,115.8,422.2,119.2L422.2,119.2
		z"/>
	<path class="st7" d="M417.9,262c2.5-10.6,4-18.9,4-18.9"/>
	<path class="st7" d="M321.7,345.3c9.4,5.5,20.1,8.3,30.9,8c26.5-0.6,47.7-37.3,55.3-56.2c3.4-8.5,6.6-20.2,9-30.6"/>
	<path class="st7" d="M312.6,338.8c1.8,1.6,3.6,3,5.6,4.4"/>
	<path class="st7" d="M387.3,137.4c11.6-0.6,21-1.2,21-1.2s8.3-1.7,12.5-9.1s6.6-16.2,4.6-25.8s-28.7-33.2-28.7-33.2h-56.4
		l-2.5,31.6c0,0-3.7,12-4.1,19.5s2.9,17.9,13.3,19.1c3.3,0.4,10.9,0.3,19.6,0.1 M374.2,138l8.4-0.4 M422.2,119.2l-6.9,3.3
		c0,0-60.8,7.5-66.7,4.9s-3.6-11.1-3.6-11.1l71.6-16.3c0,0,7.2,2,7.9,8.2C424.9,111.9,424.1,115.8,422.2,119.2z"/>
	<path class="st17" d="M298.7,198.9h6.4c2,0,3.7,1.6,3.7,3.7v48c0,2-1.6,3.7-3.7,3.7h-6.4c-2,0-3.7-1.6-3.7-3.7v-48
		C295.1,200.5,296.7,198.9,298.7,198.9z"/>
	<path class="st17" d="M303.7,199.1c-2.9,0.8-5,3.5-5,6.5v41.9c0,3,2.1,5.7,5,6.5c2.9-0.8,5-3.5,5-6.5v-41.9
		C308.7,202.6,306.7,199.9,303.7,199.1z"/>
	<path class="st17" d="M294.8,154.4c0-10.6,5.8-19.3,13-19.3h-6.4c-7.2,0-13,8.6-13,19.3s5.8,19.3,13,19.3h6.4
		C300.6,173.7,294.8,165.1,294.8,154.4z"/>
	<ellipse class="st17" cx="307.8" cy="154.4" rx="13" ry="19.3"/>
	<ellipse class="st16" cx="309.8" cy="154.4" rx="8.8" ry="14.6"/>
	<path class="st4" d="M305.1,61.6c0,0,10.8-15.7,30.1-19.9s33.4-1,51.3,14.7s33.7,49.7,33.7,49.7s3.3,9.5,2,13.1s-6.5,9.5-14.1,10.1
		s-37.6,0.7-37.6,0.7s-15.7,1.6-21.9-2.6c0,0-5.7-23.5-16.4-36.4C332.2,90.9,317.5,68.7,305.1,61.6z"/>
	<path class="st7" d="M375.2,65.5c-1.4-1.1-2.8-2.1-4.2-3.1"/>
	<path class="st7" d="M365.9,59.3c-12.6-7-25.2-7.9-41.5-4.8c-6.7,1.3-13.2,3.7-19.3,7c12.4,7.1,27.1,29.3,27.1,29.3
		c10.7,13,16.4,36.4,16.4,36.4c6.2,4.2,21.9,2.6,21.9,2.6s30.1,0,37.6-0.6c1.1-0.1,2.3-0.3,3.4-0.7c0-3.3-0.4-6.5-1.1-9.7
		c0,0-12.8-34-30.7-49.7"/>
	<path class="st4" d="M388.8,286.9c-3.2,2.6-7.4,2.1-9.2-1.2s-0.7-8.1,2.6-10.7s7.4-2.1,9.2,1.2S392,284.3,388.8,286.9z"/>
	<path class="st7" d="M392.2,280.7c-1.9-0.3-3.9,0.3-5.3,1.6c-1.9,1.6-3.1,3.8-3.4,6.2c1.9,0.3,3.9-0.3,5.3-1.6
		C390.7,285.3,391.9,283.1,392.2,280.7z"/>
	<path class="st4" d="M365.3,264.1c-4.7-3.9-8.3-8.8-10.7-14.4"/>
	<path class="st7" d="M430.6,139.6c-1.8,10.4-2.7,21-2.9,31.6c0,15.7,3.9,34.7-2,59.2s-19.6,33.4-27.8,37.3
		c-5.1,2.5-16.3,5-26.8,0.1"/>
	<path class="st16" d="M402.5,223.8c-1.1,12.8-10.1,22.4-20.1,21.5s-17.2-11.9-16-24.7s10.1-22.4,20.1-21.5S403.7,211,402.5,223.8z"
		/>
	<path class="st4" d="M385.9,104.6c3.2,3.2,3.5,8,0.8,10.6s-7.5,2.2-10.6-1s-3.5-8-0.8-10.6S382.8,101.4,385.9,104.6z"/>
	<path class="st4" d="M379.4,101.9c0.1,2.2,1.1,4.2,2.6,5.8c1.7,1.8,4.1,2.8,6.5,2.7c-0.1-2.2-1.1-4.3-2.6-5.8
		C384.2,102.8,381.9,101.8,379.4,101.9z"/>
	<path class="st18" d="M263.4,94.8L183.2,96c-11.9,0.2-21.5,9.9-21.5,21.8v150.3c0,12.2,9.6,22.3,21.8,22.8l77.1,3.6
		c12.7,0.6,23.5-9.2,24.1-21.9c0-0.4,0-0.7,0-1.1l0.5-155.3c0-11.8-9.5-21.4-21.3-21.5C263.7,94.8,263.6,94.8,263.4,94.8z"/>
</g>
<g id="freepik--Floor--inject-3">
	<line class="st8" x1="438.5" y1="433.1" x2="451.4" y2="433.1"/>
	<line class="st8" x1="0" y1="433.1" x2="424.5" y2="433.1"/>
</g>
<g id="Camada_3">
	<g>
		<ellipse class="st19" cx="221.8" cy="190" rx="55.5" ry="69.9"/>
		<path d="M221.8,260.7c-15,0-29.1-7.4-39.7-20.7c-10.6-13.4-16.5-31.1-16.5-50c0-18.9,5.8-36.7,16.5-50
			c10.6-13.4,24.7-20.7,39.7-20.7c15,0,29.1,7.4,39.7,20.7c10.6,13.4,16.5,31.1,16.5,50c0,18.9-5.8,36.7-16.5,50
			C250.9,253.4,236.8,260.7,221.8,260.7z M221.8,120.8c-30.3,0-54.9,31-54.9,69.2c0,38.1,24.6,69.2,54.9,69.2s54.9-31,54.9-69.2
			C276.7,151.9,252.1,120.8,221.8,120.8z"/>
	</g>
	<g>
		<g>
			<path class="st20" d="M172.5,189.7"/>
		</g>
		<g>
			<path class="st20" d="M172.5,189.7"/>
		</g>
		<g>
			<path class="st20" d="M172.5,189.7"/>
		</g>
		<g>
			<polygon class="st21" points="264.9,189.7 179.2,189.7 222.1,135.7 222.1,243.7 			"/>
			<path d="M222.1,244.5c-0.1,0-0.2,0-0.2-0.1c-0.2-0.1-0.4-0.4-0.4-0.7v-53.2h-42.3c-0.3,0-0.5-0.2-0.6-0.5c-0.1-0.3,0-0.6,0.1-0.9
				l42.9-54c0.2-0.2,0.4-0.3,0.7-0.2c0.2,0.1,0.4,0.4,0.4,0.7v53.2h42.2c0.3,0,0.5,0.2,0.6,0.5c0.1,0.3,0,0.6-0.1,0.9l-42.9,54
				C222.4,244.4,222.2,244.5,222.1,244.5z M222.7,190.4v51.3l40.7-51.3H222.7z M180.7,188.9h40.8v-51.3L180.7,188.9z"/>
		</g>
		<g>
			<path d="M222.1,135.8c-1.5,0-2.8-1.6-2.8-3.5c0-1.9,1.2-3.5,2.8-3.5c1.5,0,2.8,1.6,2.8,3.5C224.8,134.2,223.6,135.8,222.1,135.8z
				 M222.1,130.3c-0.9,0-1.5,0.9-1.5,1.9c0,1.1,0.7,1.9,1.5,1.9c0.9,0,1.5-0.9,1.5-1.9C223.6,131.2,222.9,130.3,222.1,130.3z"/>
		</g>
		<g>
			<path d="M222.1,249.9c-1.5,0-2.8-1.6-2.8-3.5c0-1.9,1.2-3.5,2.8-3.5c1.5,0,2.8,1.6,2.8,3.5C224.8,248.3,223.6,249.9,222.1,249.9z
				 M222.1,244.5c-0.9,0-1.5,0.9-1.5,1.9c0,1.1,0.7,1.9,1.5,1.9c0.9,0,1.5-0.9,1.5-1.9C223.6,245.3,222.9,244.5,222.1,244.5z"/>
		</g>
		<g>
			<path d="M267.1,193.2c-1.5,0-2.8-1.6-2.8-3.5c0-1.9,1.2-3.5,2.8-3.5c1.5,0,2.8,1.6,2.8,3.5C269.9,191.6,268.6,193.2,267.1,193.2z
				 M267.1,187.7c-0.9,0-1.5,0.9-1.5,1.9c0,1.1,0.7,1.9,1.5,1.9c0.9,0,1.5-0.9,1.5-1.9C268.6,188.6,267.9,187.7,267.1,187.7z"/>
		</g>
		<g>
			<path d="M177,193.2c-1.5,0-2.8-1.6-2.8-3.5c0-1.9,1.2-3.5,2.8-3.5c1.5,0,2.8,1.6,2.8,3.5C179.8,191.6,178.5,193.2,177,193.2z
				 M177,187.7c-0.9,0-1.5,0.9-1.5,1.9c0,1.1,0.7,1.9,1.5,1.9c0.9,0,1.5-0.9,1.5-1.9C178.6,188.6,177.9,187.7,177,187.7z"/>
		</g>
		<g>
			<path d="M242.8,215.8h-41.5v-52.3h41.5V215.8z M202.5,214.3h39.1v-49.2h-39.1V214.3z"/>
		</g>
		<g>
			<path d="M222.1,225.8c-15.8,0-28.7-16.2-28.7-36.1s12.9-36.1,28.7-36.1s28.7,16.2,28.7,36.1S237.9,225.8,222.1,225.8z
				 M222.1,155.1c-15.1,0-27.4,15.5-27.4,34.5s12.3,34.5,27.4,34.5c15.1,0,27.4-15.5,27.4-34.5S237.2,155.1,222.1,155.1z"/>
		</g>
		<g>
			<path d="M242.2,215.8c-0.2,0-0.3-0.1-0.4-0.2l-19.7-24.8l-19.7,24.8c-0.2,0.2-0.4,0.3-0.7,0.2c-0.2-0.1-0.4-0.4-0.4-0.7v-50.7
				c0-0.3,0.2-0.6,0.4-0.7c0.2-0.1,0.5-0.1,0.7,0.2l19.7,24.8l19.7-24.8c0.2-0.2,0.4-0.3,0.7-0.2c0.2,0.1,0.4,0.4,0.4,0.7V215
				c0,0.3-0.2,0.6-0.4,0.7C242.4,215.8,242.3,215.8,242.2,215.8z M222.9,189.7l18.6,23.5v-47L222.9,189.7z M202.5,166.2v47
				l18.6-23.5L202.5,166.2z"/>
		</g>
	</g>
</g>
</svg>
