<?xml version="1.0" encoding="utf-8"?>
<!-- Generator: Adobe Illustrator 25.0.0, SVG Export Plug-In . SVG Version: 6.00 Build 0)  -->
<svg version="1.1" id="Camada_1" xmlns="http://www.w3.org/2000/svg" xmlns:xlink="http://www.w3.org/1999/xlink" x="0px" y="0px"
	 viewBox="0 0 339.6 319.7" style="enable-background:new 0 0 339.6 319.7;" xml:space="preserve">
<style type="text/css">
	.st0{display:none;}
	.st1{display:inline;}
	.st2{fill:#FFFFFF;}
	.st3{clip-path:url(#SVGID_2_);}
	.st4{opacity:0.4;fill:#00FF6A;enable-background:new    ;}
	.st5{fill:none;stroke:#263238;stroke-linecap:round;stroke-linejoin:round;}
	.st6{fill:#00FF6A;}
	.st7{opacity:0.2;enable-background:new    ;}
	.st8{fill:#00FF6A;stroke:#263238;stroke-linecap:round;stroke-linejoin:round;}
	.st9{fill:#263238;}
	.st10{fill:#FFFFFF;stroke:#263238;stroke-linecap:round;stroke-linejoin:round;}
	.st11{opacity:0.2;}
	.st12{fill:none;stroke:#FFFFFF;stroke-linecap:round;stroke-linejoin:round;}
	.st13{fill:#263238;stroke:#263238;stroke-linecap:round;stroke-linejoin:round;}
	.st14{clip-path:url(#SVGID_4_);}
	.st15{fill:#00FF6A;stroke:#263238;stroke-width:1.0017;stroke-linecap:round;stroke-linejoin:round;stroke-miterlimit:4.0068;}
	.st16{fill:none;stroke:#26343B;stroke-miterlimit:10;}
	.st17{fill:#00FF6A;stroke:#26343B;stroke-miterlimit:10;}
	.st18{clip-path:url(#SVGID_6_);}
	.st19{opacity:0.4;fill:#171717;enable-background:new    ;}
	.st20{fill:none;stroke:#212121;stroke-miterlimit:10;}
	.st21{fill:#00FF6A;stroke:#212121;stroke-linecap:round;stroke-linejoin:round;}
	.st22{fill:#FFFFFF;stroke:#212121;stroke-linecap:square;stroke-linejoin:round;stroke-miterlimit:10;}
	.st23{fill:none;stroke:#212121;stroke-linecap:round;stroke-miterlimit:10;}
	.st24{fill:#171717;}
	.st25{fill:none;stroke:#828282;stroke-linecap:round;stroke-linejoin:round;}
	.st26{clip-path:url(#SVGID_8_);}
	.st27{fill:none;stroke:#212121;stroke-linecap:round;stroke-linejoin:round;}
	.st28{fill:#212121;}
	.st29{fill:#00FF6A;stroke:#212121;stroke-linecap:square;stroke-linejoin:round;stroke-miterlimit:10;}
	.st30{fill:none;stroke:#212121;stroke-linejoin:round;stroke-miterlimit:10;}
	.st31{display:inline;fill:none;stroke:#000000;stroke-width:5;stroke-miterlimit:10;}
</style>
<g id="Camada_1_2_">
	<g id="Camada_1_1_" class="st0">
		<g id="freepik--Character--inject-626" class="st1">
			<path class="st2" d="M80.6,287.3c0,0-11.9,8.1-16.7,7.5c-0.5,0-1-0.2-1.4-0.6c-3.1-3.2-5.6-8.9-5.6-8.9s1.5-2.1,6.1,3.4l2.9-2.7
				l-6-6.1c0,0,3.4-2.7,9.1,0.7c-0.2-0.4-3.9-8.5-1.1-19.5l-14-13.5l12.4-10.8l1-0.8c0,0,0.8,0.8,2,2s2.9,2.7,4.7,4.3
				c4.4,3.9,9.7,8,12,8C90.2,250.3,80.6,287.3,80.6,287.3z"/>
			<g>
				<g>
					<g>
						<g>
							<g>
								<defs>
									<path id="SVGID_1_" d="M80.6,287.3c0,0-11.9,8.1-16.7,7.5c-0.5,0-1-0.2-1.4-0.6c-3.1-3.2-5.6-8.9-5.6-8.9s1.5-2.1,6.1,3.4
										l2.9-2.7l-6-6.1c0,0,3.4-2.7,9.1,0.7c-0.2-0.4-3.9-8.5-1.1-19.5l-14-13.5l12.4-10.8l1-0.8c0,0,0.8,0.8,2,2s2.9,2.7,4.7,4.3
										c4.4,3.9,9.7,8,12,8C90.2,250.3,80.6,287.3,80.6,287.3z"/>
								</defs>
								<clipPath id="SVGID_2_">
									<use xlink:href="#SVGID_1_"  style="overflow:visible;"/>
								</clipPath>
								<g class="st3">
									<path class="st4" d="M71.4,282c0,0-6.8,7-7.5,12.9c-0.5,0-1-0.2-1.4-0.6c-3.1-3.2-5.6-8.9-5.6-8.9s1.5-2.1,6.1,3.4l2.9-2.7
										l-6-6.1c0,0,3.4-2.7,9.1,0.7c-0.2-0.4-3.9-8.5-1.1-19.5l-14-13.5l12.4-10.8l3,1.1c1.2,1.2,2.9,2.7,4.7,4.3
										c-2.6,3.9-8.3,11.8-8.3,11.8l4.9,6.6C70.7,260.8,67.7,277.4,71.4,282z"/>
								</g>
							</g>
						</g>
					</g>
				</g>
			</g>
			<path class="st5" d="M80.6,287.3c0,0-11.9,8.1-16.7,7.5c-0.5,0-1-0.2-1.4-0.6c-3.1-3.2-5.6-8.9-5.6-8.9s1.5-2.1,6.1,3.4l2.9-2.7
				l-6-6.1c0,0,3.4-2.7,9.1,0.7c-0.2-0.4-3.9-8.5-1.1-19.5l-14-13.5l12.4-10.8l1-0.8c0,0,0.8,0.8,2,2s2.9,2.7,4.7,4.3
				c4.4,3.9,9.7,8,12,8C90.2,250.3,80.6,287.3,80.6,287.3z"/>
			<path class="st5" d="M65.9,286.1c0.7-2,1.7-3.8,3.1-5.3"/>
			<path class="st6" d="M287.7,193.1c-1.9,2.7-4.1,5.2-6.7,7.3l0,0c-21.9,18.1-72.3,27-72.3,27s-1.7,2.5-4.3,6.1
				c-4.7,6.5-12.3,16.4-18.5,21.4l0,0c-2.6,2.1-5,3.3-6.8,3l9.5,34.9l4.2,15.2c0,0-43.5,19-117.8-2.7c0,0-0.9-9.7-0.2-11.8
				c0-0.1,0.1-0.2,0.1-0.3c0.8-1.4,1.7-2.6,2.9-3.7c0,0-0.4-6.2-0.6-12.6c-0.2-4-0.2-8.1,0.1-12.1c0.5-3.2,2.9-10.9,4.1-14.7
				l0.7-2.2l-3.7-34.6l-1.1-10l-0.1-0.5c0-0.1,0-0.1,0-0.2l-0.6-5.4L57.5,203c0,0,1,2.2,2.4,5.4c2.5,5.8,6.2,14.5,7,18
				c0.1,0.3,0.1,0.6,0.2,0.8c1.8,5,8.5,9.6,8.5,9.6L57.5,258l-5.4-3.7c-0.7,0.5-1.4,1-2.2,1.4c-3.5,1.9-10.9,4.7-19,0.4
				c-3.5-2-6.6-4.7-8.9-7.9C7.8,229.8,1.6,214.7,3.6,197s81.5-72.2,97.3-71.6l23.5,5.2c0.5-0.4,1.9-1.5,2.9-1.5
				c4.3,0.2,4.4,5.2,4.4,5.2l52.6,8.5c0,0,5.5-2.7,6.4-2.7c1.4,0.1,2.6,0.9,3.3,2.1c0,0,13.6-8.2,18-6.3
				C226.6,142,298.3,176.9,287.7,193.1z"/>
			<path class="st7" d="M105,279.5c-6,6.6-14,10.9-22.8,12.4c-2.8,0.4-5.2,0.9-7.3,1.3c0.8-1.4,1.7-2.6,2.9-3.7
				c0,0-0.4-6.2-0.6-12.6C83.3,281,94.1,285.7,105,279.5z"/>
			<path class="st7" d="M81.3,250.1l0.7-2.2l-3.7-34.6c5.5,7.9,25.2,34.9,38.8,37.9C131.4,254.1,93.4,259.5,81.3,250.1z"/>
			<path class="st7" d="M188.5,292.8c-14.9-1.7-35.8-5.4-37.9-13.2c-3.3-12.1,12.6-19.4,35.3-24.7c-2.6,2.1-5,3.3-6.8,3L188.5,292.8
				z"/>
			<path class="st7" d="M280.9,200.4c-21.9,18.1-72.3,27-72.3,27s-1.7,2.5-4.3,6.1c-7.4-17.7-8.5-37.4-3.2-55.9c0,0,3.9,21,20,26
				c0,0-12.3-9.2-8-31.3c0,0,4.2,26,31.6,33.2C258.1,209.1,271.1,205.2,280.9,200.4z"/>
			<path class="st7" d="M77.2,202.7l-0.6-5.6l-19.1,5.8c0,0,1,2.2,2.4,5.4c-7.3-0.8-21.2,6-23.6-1.4c-2.9-8.9,15-5.9,15-5.9
				l16.9-9.9c-3.2-13.7,4.9-24,4.9-24l1.6,9.6c0.7-18.2,7.9-28.1,7.9-28.1C76.7,163.1,76.8,198.5,77.2,202.7z"/>
			<path class="st7" d="M75.7,236.8L57.6,258l-5.4-3.7c-0.7,0.5-1.4,1-2.2,1.4c-3.5,1.9-10.9,4.7-19,0.4c5.9-8.1,18-20.1,32.4-24.7
				c-3.5,5.3-6.7,10.8-9.5,16.4l3.7,3.7C57.6,251.4,66.9,240.8,75.7,236.8z"/>
			<path class="st7" d="M119.6,143.6c0,1.9-1.2,23,14.2,28.6s29.1-3.9,29.1-3.9s-23.6,22.8-38,10.6S119.6,143.6,119.6,143.6z"/>
			<path class="st5" d="M75,305.3c0,0-0.8-9.7-0.2-11.8c0.5-1.7,3-4,3-4s-1.3-19.7-0.5-24.7c0.7-4.4,4.7-17,4.7-17l-5.4-50.7
				L57.5,203c0,0,8.1,18,9.4,23.3c1.3,5.3,8.8,10.5,8.8,10.5l-18.1,21.1l-5.4-3.7c0,0-15.8,12.4-30.1-6.1S1.7,214.6,3.7,196.9
				s81.6-72.2,97.3-71.6l23.5,5.2c0.5-0.4,1.9-1.5,2.9-1.5c4.3,0.2,4.4,5.2,4.4,5.2l52.6,8.5c0,0,5.5-2.7,6.4-2.7
				c1.4,0.1,2.6,0.9,3.3,2.1c0,0,13.6-8.1,18-6.3c14.4,6.2,86.1,41.1,75.5,57.3c-15.1,23-79,34.3-79,34.3s-21.2,32-29.6,30.5
				l13.7,50.1"/>
			<path class="st8" d="M232.1,196.6c24.1,15.9,43.6,13,58.8-7.5c0,0,12.7-16.4,11.8-34s-5.1-75.1-60.1-60.4
				c-9,2.4-30.2,30.7-31.9,38.5c-0.8,3.5-9.3,21.6-17.5,40.3"/>
			<path class="st9" d="M166.8,27.7c0,0,15.4-2.3,26.1,7.2c13.5,12.1,28.7,44.7,7.1,98.7c0,0-31.9-21.2-86.4-7
				c0,0,4.7-12.7-3.5-52.6C106.3,56,115.7,14.4,166.8,27.7z"/>
			<path class="st10" d="M143.5,163.2c22.8,3.7,46.9-21.5,46.9-21.5s-12.4-1.5-13.5-7.3c-3.5-18.3,10.7-41,10.7-41
				s-55.3,1.5-45.6,14c1.8,2.3,3.3,4.8,4.4,7.5c3.4,8.2,1,14.4-0.8,16c-0.1,0.1-0.3,0.2-0.4,0.3c-3.3,1.5-17.1-0.8-17.1-0.8
				S122.7,159.9,143.5,163.2z"/>
			<path class="st5" d="M182.6,148.7c0,0-10.5,4.2-25.9,3l-6.9,3.4"/>
			<path class="st5" d="M142.9,154.5l-0.5-4.5c0,0-11.3-3.5-14.9-10.3"/>
			<path class="st9" d="M145.7,130.9c16.9,4.4,24.9-17.3,24.9-17.3s-13.5-4-24.1,1.3C149.8,123.2,147.5,129.4,145.7,130.9z"/>
			<path class="st10" d="M188.7,82c4.1-23.1-0.5-50.8-35.6-48.5c-25.1,1.6-24.9,29.2-23.3,37.4c2.8,13.8-1.2,19.3,3.1,30.9
				c3.1,8.4,10.3,17.7,18.8,21.2c5.2,2.1,26.3-12.6,27.9-19.4"/>
			<path class="st5" d="M144.5,75.2c-0.2,2.6-0.5,9-6,13.8c-3.6,3.1,4.6,6.2,4.6,6.2"/>
			<path class="st5" d="M138.6,66c0,0-7.8-3.8-13,2.5"/>
			<path class="st5" d="M151.6,65.5c5.5-1.6,11.3-1.4,16.6,0.7"/>
			<path class="st9" d="M159.7,76.4c0.2,2.2,1.7,3.9,3.4,3.7s2.7-2.1,2.5-4.4s-1.7-3.9-3.4-3.7S159.4,74.2,159.7,76.4z"/>
			<path class="st5" d="M143.4,102.5c6.2-0.9,12.1-3,17.4-6.3c0,0,0.7,9.7-7.4,11.7c-6.2,1.6-8.6-5.6-8.6-5.6"/>
			<path class="st9" d="M166.3,42.3c0,0-2.2,27.4,22,37.3l11.3-26.3l-17.1-19l-25.8-7.5c-38.6,2.4-55.2,26.4-33.8,90.2
				C122.8,117,116.8,41,166.3,42.3z"/>
			<path class="st10" d="M182.9,80.7c-0.3-3.1,7.5-10.9,10.1-5.9c4.5,8.6,1.2,16-3.4,19c-2.1,1.3-4.7,3.8-6.6,1.4"/>
			<path class="st9" d="M136.1,77.5c0.2,2.2,1.8,3.9,3.4,3.7s2.7-2.1,2.5-4.4s-1.8-3.9-3.4-3.7S135.9,75.2,136.1,77.5z"/>
			<g class="st11">
				<path class="st12" d="M119.4,73c-0.3,1.9-0.5,3.7-0.6,5.6"/>
				<path class="st12" d="M162.3,37.3c-19.5-0.5-37.7,11.9-42,31.5"/>
				<path class="st12" d="M158.8,31.7c0,0-28.2-6.6-38.7,12.1"/>
				<path class="st12" d="M181.6,64.3c1.7,2.4,3.7,4.6,6.1,6.4"/>
				<path class="st12" d="M170.4,35.3c1.4,9,4.5,17.6,8.9,25.5"/>
				<path class="st12" d="M198.8,120.1c-0.5,2.2-1.1,4.5-1.8,6.7"/>
				<path class="st12" d="M197.1,82.9c4.6,10.1,4.3,22.8,2.4,33.5"/>
				<path class="st12" d="M193.8,100.5c0.5,7.8-2.4,15.4-8,20.9"/>
				<path class="st12" d="M180.8,38.6c4.8,6.5,8.4,13.4,13.9,19.4c5.9,6.2,11.7,13.4,12.8,22.1"/>
				<path class="st12" d="M174,31.9c1.4,0.9,2.6,2,3.8,3.1"/>
			</g>
			<path class="st13" d="M270.4,182.3c-0.6,0.1-1.1,0.2-1.7,0.3c-15.1,2.2-32.1-10.4-37.8-25.4c-4.5-11.9-0.6-25.4,1.6-31.1
				c0.7-1.8,1.2-2.9,1.2-2.9c9.1-13,62.1,12.5,62.8,26.5S285.9,178.9,270.4,182.3z"/>
			<path class="st2" d="M287,151.5c0,0-3,22.3-18.3,31c-15.1,2.2-32.1-10.4-37.8-25.4c-4.5-11.9-0.6-25.4,1.6-31.1l0,0
				C250.4,115.8,287,151.5,287,151.5z"/>
			<g>
				<g>
					<g>
						<g>
							<g>
								<defs>
									<path id="SVGID_3_" d="M287,151.5c0,0-3,22.3-18.3,31c-15.1,2.2-32.1-10.4-37.8-25.4c-4.5-11.9-0.6-25.4,1.6-31.1l0,0
										C250.4,115.8,287,151.5,287,151.5z"/>
								</defs>
								<clipPath id="SVGID_4_">
									<use xlink:href="#SVGID_3_"  style="overflow:visible;"/>
								</clipPath>
								<g class="st14">
									<path class="st4" d="M287,151.5c0,0-3,22.3-18.3,31c-15.1,2.2-32.1-10.4-37.8-25.4c-4.5-11.9-0.6-25.4,1.6-31.1l0,0
										C250.4,115.8,287,151.5,287,151.5z"/>
								</g>
							</g>
						</g>
					</g>
				</g>
			</g>
			<path class="st5" d="M287,151.5c0,0-3,22.3-18.3,31c-15.1,2.2-32.1-10.4-37.8-25.4c-4.5-11.9-0.6-25.4,1.6-31.1l0,0
				C250.4,115.8,287,151.5,287,151.5z"/>
			<path class="st5" d="M224.5,163.3c0,0,17.2,24.7,37.3,26.8s33-14.9,33.8-27.6"/>
			<path class="st10" d="M214.8,51.7c1.5-4.2,12.4-2.8,15.8,10.4s17,45.3,17,45.3s54-79.4,63.6-82.5s5.9,10.7-7.1,29.8
				c0,0,12.1-2.1,15.3,0s1.6,15,3.3,19.5c2.8,7.5-3.5,9.1-3.5,9.1c3.1,0.1,6.1,1.2,8.4,3.2c3.5,3.2,1.7,16.7,2.7,20.5
				c1,3.8-5.6,7-5.6,7s15.9,8.7,12.3,10.9c-6.1,3.7-9.5-0.1-9.5-0.1s-24.5,30.7-42.9,37.5s-54.3-20.3-58.2-35.1s0.8-13.9-2.2-38.5
				S214.8,51.7,214.8,51.7z"/>
			<path class="st10" d="M222.4,21.4l71.1-18.5c2.5-0.7,5.1,0.9,5.8,3.4l33.6,128.9c0.7,2.5-0.9,5.1-3.4,5.8l-71.1,18.5
				c-2.5,0.7-5.1-0.9-5.8-3.4L219,27.2C218.4,24.7,219.9,22.1,222.4,21.4z"/>
			<path class="st8" d="M252.8,17.7c0.2,0.6-0.2,1.2-0.8,1.4c-0.6,0.2-1.2-0.2-1.4-0.8c-0.2-0.6,0.2-1.2,0.8-1.4l0,0
				C252,16.7,252.6,17.1,252.8,17.7z"/>
			<path class="st8" d="M267.4,13.9c0.1,0.4-0.1,0.8-0.5,0.9l0,0c-0.4,0.1-0.8-0.1-0.9-0.5s0.1-0.8,0.5-0.9S267.3,13.5,267.4,13.9z"
				/>
			<path class="st15" d="M255.3,17.9l8.6-2.2c0.2,0,0.3,0.1,0.4,0.2v0.2c0,0.2-0.1,0.3-0.2,0.4l-8.6,2.2c-0.2,0-0.3-0.1-0.4-0.2
				v-0.2C255.1,18.1,255.2,18,255.3,17.9z"/>
			<path class="st8" d="M297.1,7.6l33.4,127.9c0.4,1.5-0.5,3-2,3.4l-70.2,18.3c-1.5,0.4-3-0.5-3.4-2L221.6,27.3
				c-0.4-1.5,0.5-3,2-3.4l14.4-3.8c0.9-0.2,1.9,0.1,2.5,0.9l1,1.5c0.6,0.8,1.6,1.2,2.5,0.9l31.6-8.2c0.9-0.2,1.6-1,1.7-2l0.2-1.8
				c0.1-1,0.8-1.8,1.7-2l14.4-3.8C295.2,5.3,296.7,6.1,297.1,7.6z"/>
			<circle class="st10" cx="270.9" cy="65.3" r="29.6"/>
			<g>
				<path class="st16" d="M265.6,48.1c0.7-0.2,1.1-1,0.8-1.6l0,0c-0.2-0.7-1-1-1.6-0.8c-0.7,0.2-1.1,1-0.8,1.6
					C264.2,47.9,265,48.3,265.6,48.1z"/>
				<path class="st16" d="M249.6,69.4c-0.7,0.2-1.1,0.9-0.9,1.6s0.9,1.1,1.6,0.9l0,0c0.7-0.2,1.1-0.9,0.9-1.6S250.3,69.3,249.6,69.4
					z"/>
				<path class="st16" d="M290.7,58.2c-0.7,0.2-1.1,0.9-0.9,1.6s0.9,1.1,1.6,0.9l0,0c0.7-0.2,1.1-0.9,0.9-1.6S291.4,58,290.7,58.2z"
					/>
				<path class="st16" d="M275.5,81.1c-0.7,0.2-1.1,0.9-0.9,1.6l0,0l0,0c0.2,0.7,0.9,1.1,1.6,0.9s1.1-0.9,0.9-1.6
					C276.9,81.3,276.1,80.9,275.5,81.1z"/>
				<path class="st17" d="M292.7,57.8c-0.9-0.8-2.3-0.8-3.2,0.1c-0.3,0.3-0.5,0.6-0.5,1c-1.7-3.8-5.9-5.8-9.8-4.6l-2.6,0.7l-0.4-1.2
					c-1.3-3.9-5.2-6.3-9.3-5.6c0.8-0.9,0.7-2.3-0.2-3.2c-0.9-0.8-2.3-0.7-3.2,0.2s-0.7,2.3,0.2,3.2c0.3,0.3,0.6,0.4,1,0.5
					c-3.7,1.8-5.6,6.1-4.3,10l0.1,0.4l-3.1,0.8c-4,1-6.6,4.9-6.1,9c-0.3-0.3-0.6-0.5-1-0.6c-1.2-0.3-2.4,0.4-2.8,1.5
					c-0.3,1.2,0.4,2.4,1.5,2.8c1.2,0.3,2.4-0.4,2.8-1.5c1.6,3.8,5.7,5.8,9.7,4.8l3.5-0.9c1.2,3.8,5,6.3,9,5.7
					c-0.8,0.9-0.8,2.3,0.1,3.2s2.3,0.8,3.2-0.1c0.8-0.9,0.8-2.3-0.1-3.2c-0.3-0.3-0.6-0.5-1-0.5c3.6-1.6,5.6-5.6,4.7-9.4l2.7-0.8
					c3.9-1.1,6.4-5,5.9-9.1c0.9,0.8,2.3,0.8,3.2-0.1C293.6,60.1,293.6,58.6,292.7,57.8z M250.3,72L250.3,72
					c-0.7,0.2-1.4-0.2-1.6-0.9s0.2-1.4,0.9-1.6c0.7-0.2,1.6,0.2,1.8,0.9S251,71.8,250.3,72z M264,47.2c-0.2-0.7,0.2-1.4,0.8-1.6
					c0.7-0.2,1.4,0.1,1.6,0.8l0,0c0.2,0.7-0.1,1.6-0.7,1.8S264.2,47.9,264,47.2z M277.1,82c0.2,0.7-0.2,1.4-0.9,1.6
					c-0.7,0.2-1.4-0.2-1.6-0.9l0,0l0,0c-0.2-0.7,0.1-1.6,0.8-1.8C276.1,80.8,276.9,81.3,277.1,82z M291.5,60.7L291.5,60.7
					c-0.7,0.2-1.7-0.2-1.9-0.8c-0.2-0.7,0.4-1.5,1.1-1.7s1.4,0.2,1.6,0.9C292.5,59.7,292.2,60.5,291.5,60.7z"/>
			</g>
			<line class="st5" x1="282.6" y1="70.4" x2="264.7" y2="75.3"/>
			<line class="st5" x1="276.6" y1="55" x2="265.2" y2="75.2"/>
			<line class="st5" x1="260.7" y1="59.3" x2="281.1" y2="70.9"/>
			<line class="st5" x1="277" y1="54.9" x2="259.7" y2="59.6"/>
			<line class="st5" x1="260.6" y1="59.3" x2="265.2" y2="75.2"/>
			<line class="st5" x1="251.2" y1="70.4" x2="289.6" y2="59.8"/>
			<line class="st5" x1="266" y1="48.1" x2="275.5" y2="81.1"/>
			<line class="st5" x1="276.6" y1="55" x2="281.1" y2="70.9"/>
			<path class="st9" d="M305.9,114.2l-40,10.4c-4.8,1.3-9.7-1.6-11-6.4l0,0l0,0c-1.3-4.8,1.6-9.7,6.4-11l0,0l40-10.4
				c4.8-1.2,9.7,1.6,11,6.4l0,0C313.6,108,310.7,112.9,305.9,114.2z"/>
			<path class="st2" d="M261.5,112.1c0.3-0.5,0.7-0.8,1.3-0.9c0.5-0.2,1.1-0.1,1.6,0.2s0.8,0.8,0.9,1.4l0.1,0.3l-1.2,0.3l-0.1-0.3
				c0-0.2-0.2-0.4-0.3-0.6c-0.2-0.1-0.4-0.1-0.5-0.1c-0.2,0-0.3,0.2-0.4,0.3c-0.1,0.2-0.1,0.4,0,0.7s0.3,0.6,0.5,0.8
				c0.3,0.3,0.7,0.5,1.1,0.7c0.3,0.2,0.6,0.3,0.9,0.5s0.5,0.4,0.7,0.7s0.4,0.6,0.5,1c0.2,0.5,0.1,1.1-0.1,1.7
				c-0.6,0.9-1.9,1.2-2.9,0.8c-0.5-0.3-0.8-0.8-0.9-1.4l-0.1-0.5l1.2-0.3l0.1,0.6c0.1,0.5,0.4,0.8,0.9,0.6s0.6-0.4,0.5-1
				c-0.1-0.3-0.3-0.6-0.5-0.8c-0.3-0.3-0.7-0.5-1.1-0.7c-0.3-0.2-0.6-0.4-0.9-0.6s-0.5-0.4-0.7-0.7s-0.4-0.6-0.5-1
				C261.2,113.2,261.3,112.6,261.5,112.1z"/>
			<path class="st2" d="M268.4,116.6c0.1,0.5,0.4,0.7,0.9,0.6s0.6-0.5,0.5-1l-1.7-6.4l1.2-0.3l1.6,6.3c0.2,0.5,0.1,1.1-0.1,1.7
				c-0.3,0.5-0.8,0.8-1.3,0.9c-0.5,0.2-1.1,0.1-1.6-0.2s-0.8-0.9-0.9-1.4l-1.6-6.3l1.3-0.3L268.4,116.6z"/>
			<path class="st2" d="M273.7,108.9c0.4,0.3,0.8,0.8,0.8,1.3l0.1,0.3c0.1,0.4,0.1,0.7,0.1,1.1c-0.1,0.3-0.2,0.6-0.5,0.8
				c0.7,0.1,1.2,0.6,1.4,1.5l0.2,0.7c0.2,0.5,0.1,1.1-0.1,1.6c-0.3,0.5-0.8,0.8-1.3,0.9l-2,0.5l-2.2-8.3l2-0.5
				C272.7,108.7,273.2,108.7,273.7,108.9z M272.4,112.4l0.5-0.1c0.2,0,0.4-0.2,0.5-0.4s0.1-0.5,0-0.7l-0.1-0.5
				c0-0.2-0.2-0.4-0.3-0.6c-0.2-0.1-0.4-0.1-0.5-0.1l-0.6,0.2L272.4,112.4z M273.4,116.1l0.7-0.2c0.2,0,0.4-0.1,0.5-0.3
				s0.1-0.5,0-0.7l-0.2-0.7c0-0.3-0.2-0.5-0.4-0.7c-0.2-0.1-0.5-0.1-0.7-0.1l-0.6,0.2L273.4,116.1z"/>
			<path class="st2" d="M275.4,108.5c0.3-0.5,0.7-0.8,1.3-0.9c0.5-0.2,1.1-0.1,1.6,0.2s0.8,0.9,0.9,1.4l0.1,0.3l-1.2,0.3l-0.1-0.4
				c0-0.2-0.2-0.4-0.3-0.6c-0.2-0.1-0.4-0.1-0.5-0.1c-0.2,0-0.4,0.2-0.4,0.3c-0.1,0.2-0.1,0.4,0,0.7s0.3,0.6,0.5,0.8
				c0.3,0.3,0.7,0.5,1.1,0.7s0.7,0.4,0.9,0.5c0.3,0.2,0.5,0.4,0.7,0.7s0.4,0.6,0.5,1c0.2,0.5,0.2,1.1-0.1,1.7
				c-0.3,0.5-0.8,0.8-1.3,0.9c-0.5,0.2-1.1,0.1-1.6-0.2s-0.8-0.9-0.9-1.4l-0.1-0.5l1.2-0.3l0.2,0.6c0.1,0.5,0.4,0.7,0.9,0.6
				s0.6-0.4,0.5-1c-0.1-0.3-0.3-0.6-0.5-0.8c-0.3-0.3-0.7-0.5-1.1-0.7c-0.3-0.2-0.6-0.4-0.9-0.6s-0.5-0.4-0.7-0.7s-0.4-0.6-0.5-1
				C275.1,109.6,275.2,109,275.4,108.5z"/>
			<path class="st2" d="M284.8,112.3c0.2,0.5,0.1,1.1-0.1,1.7c-0.3,0.5-0.8,0.8-1.3,0.9c-0.5,0.2-1.1,0.1-1.6-0.2s-0.8-0.8-0.9-1.4
				l-1.1-4.3c-0.2-0.5-0.2-1.1,0.1-1.7c0.3-0.5,0.8-0.8,1.3-0.9c0.5-0.2,1.1-0.1,1.6,0.2s0.8,0.9,0.9,1.4l0.2,0.8l-1.2,0.3l-0.2-0.9
				c-0.1-0.5-0.4-0.8-0.9-0.6s-0.6,0.4-0.5,1l1.2,4.5c0.1,0.5,0.4,0.8,0.9,0.6s0.6-0.4,0.5-1l-0.3-1.2l1.2-0.3L284.8,112.3z"/>
			<path class="st2" d="M288.6,113c-0.1-0.2-0.1-0.4-0.2-0.6l-0.3-1.3c0-0.3-0.2-0.6-0.4-0.8c-0.2-0.1-0.5-0.2-0.7-0.1l-0.4,0.1
				l0.9,3.4l-1.3,0.3l-2.1-8.3l2-0.5c0.9-0.4,1.9,0,2.3,0.9c0.1,0.2,0.1,0.4,0.1,0.5l0.2,0.7c0.3,0.7,0.1,1.4-0.4,1.9
				c0.3,0,0.6,0.2,0.8,0.5c0.2,0.3,0.4,0.7,0.5,1.1l0.3,1.3c0.1,0.2,0.1,0.4,0.2,0.6c0.1,0.1,0.1,0.3,0.2,0.4l-1.3,0.4
				C288.8,113.2,288.7,113.1,288.6,113z M286.2,109.1l0.5-0.1c0.2,0,0.4-0.2,0.5-0.4s0.1-0.5,0-0.7l-0.2-0.8c0-0.2-0.1-0.4-0.3-0.6
				c-0.2-0.1-0.4-0.1-0.6-0.1l-0.6,0.2L286.2,109.1z"/>
			<path class="st2" d="M290,104.2l2.1,8.3l-1.3,0.3l-2.2-8.3L290,104.2z"/>
			<path class="st2" d="M294.5,103.5c0.4,0.3,0.7,0.8,0.8,1.3l0.1,0.3c0.1,0.4,0.1,0.7,0.1,1.1c-0.1,0.3-0.2,0.6-0.5,0.8
				c0.7,0.1,1.2,0.6,1.4,1.5l0.2,0.7c0.2,0.5,0.1,1.1-0.1,1.6c-0.3,0.5-0.8,0.8-1.3,0.9l-2,0.5L291,104l2-0.5
				C293.4,103.2,294,103.3,294.5,103.5z M293.1,106.9l0.5-0.1c0.2,0,0.4-0.2,0.5-0.4s0.1-0.5,0-0.7l-0.1-0.5c0-0.2-0.2-0.4-0.3-0.6
				c-0.2-0.1-0.4-0.1-0.6-0.1l-0.6,0.2L293.1,106.9z M294.1,110.7l0.7-0.2c0.2,0,0.4-0.2,0.5-0.3c0.1-0.2,0.1-0.5,0-0.7l-0.2-0.7
				c0-0.3-0.2-0.5-0.4-0.7c-0.2-0.1-0.5-0.1-0.7-0.1l-0.6,0.1L294.1,110.7z"/>
			<path class="st2" d="M299.7,105.4l0.3,1.2l-1.8,0.5l0.6,2.4l2.2-0.6l0.3,1.2l-3.5,0.9l-2.1-8.3l3.5-0.9l0.3,1.2l-2.2,0.6l0.6,2.3
				L299.7,105.4z"/>
			<path class="st2" d="M302.1,101c0.5-0.2,1.1-0.1,1.6,0.1c0.5,0.3,0.8,0.8,0.9,1.4l1.1,4.2c0.2,0.5,0.2,1.1-0.1,1.6
				c-0.3,0.5-0.8,0.8-1.3,0.9l-2.1,0.5l-2.2-8.3L302.1,101z M303.2,108.3l0.7-0.2c0.2,0,0.4-0.2,0.5-0.3c0.1-0.2,0.1-0.4,0-0.7
				l-1.1-4.3c0-0.2-0.2-0.4-0.3-0.6c-0.2-0.1-0.4-0.1-0.5-0.1l-0.7,0.2L303.2,108.3z"/>
			<path class="st5" d="M208.7,227.4c0,0-12.1-28.2-6-62.5"/>
			<path class="st5" d="M179.1,257.9c0,0-24.5,7.5-27,13.1s11,0.9,11,0.9"/>
			<path class="st5" d="M194.2,142.1c0,0-22.6,22.4-37.7,28.4"/>
			<path class="st5" d="M120.1,136c0,0-4.1,30.2,11.2,36"/>
			<path class="st5" d="M76.6,197.1c0,0-0.1-39.6,7.8-51.9"/>
			<path class="st5" d="M73.7,156.7c0,0-2.2,24.6,2.8,32.6"/>
			<path class="st5" d="M57.5,203c0,0-17.2-5.9-20.8,1.4s10.2,0.8,10.2,0.8"/>
			<path class="st5" d="M67.8,228.7c0,0-16.9,9.5-17.8,15"/>
			<path class="st5" d="M95.4,202.4c0,0,32.3,48.8,50.1,44.4"/>
			<path class="st5" d="M117.5,270.9c0,0-25.3,18.6-29,17"/>
			<path class="st7" d="M294.9,191.6c1.7-1.4,2.8-2.3,3.2-2.6C297.7,189.3,296.6,190.3,294.9,191.6z"/>
		</g>
	</g>
	<g id="Camada_1_cópia">
		<g id="freepik--Character--inject-626_1_">
			<path class="st2" d="M80.6,287.3c0,0-11.9,8.1-16.7,7.5c-0.5,0-1-0.2-1.4-0.6c-3.1-3.2-5.6-8.9-5.6-8.9s1.5-2.1,6.1,3.4l2.9-2.7
				l-6-6.1c0,0,3.4-2.7,9.1,0.7c-0.2-0.4-3.9-8.5-1.1-19.5l-14-13.5l12.4-10.8l1-0.8c0,0,0.8,0.8,2,2s2.9,2.7,4.7,4.3
				c4.4,3.9,9.7,8,12,8C90.2,250.3,80.6,287.3,80.6,287.3z"/>
			<g>
				<g>
					<g>
						<g>
							<g>
								<defs>
									<path id="SVGID_5_" d="M80.6,287.3c0,0-11.9,8.1-16.7,7.5c-0.5,0-1-0.2-1.4-0.6c-3.1-3.2-5.6-8.9-5.6-8.9s1.5-2.1,6.1,3.4
										l2.9-2.7l-6-6.1c0,0,3.4-2.7,9.1,0.7c-0.2-0.4-3.9-8.5-1.1-19.5l-14-13.5l12.4-10.8l1-0.8c0,0,0.8,0.8,2,2s2.9,2.7,4.7,4.3
										c4.4,3.9,9.7,8,12,8C90.2,250.3,80.6,287.3,80.6,287.3z"/>
								</defs>
								<clipPath id="SVGID_6_">
									<use xlink:href="#SVGID_5_"  style="overflow:visible;"/>
								</clipPath>
								<g class="st18">
									<path class="st19" d="M71.4,282c0,0-6.8,7-7.5,12.9c-0.5,0-1-0.2-1.4-0.6c-3.1-3.2-5.6-8.9-5.6-8.9s1.5-2.1,6.1,3.4
										l2.9-2.7l-6-6.1c0,0,3.4-2.7,9.1,0.7c-0.2-0.4-3.9-8.5-1.1-19.5l-14-13.5l12.4-10.8l3,1.1c1.2,1.2,2.9,2.7,4.7,4.3
										c-2.6,3.9-8.3,11.8-8.3,11.8l4.9,6.6C70.7,260.8,67.7,277.4,71.4,282z"/>
								</g>
							</g>
						</g>
					</g>
				</g>
			</g>
			<path class="st20" d="M80.6,287.3c0,0-11.9,8.1-16.7,7.5c-0.5,0-1-0.2-1.4-0.6c-3.1-3.2-5.6-8.9-5.6-8.9s1.5-2.1,6.1,3.4l2.9-2.7
				l-6-6.1c0,0,3.4-2.7,9.1,0.7c-0.2-0.4-3.9-8.5-1.1-19.5l-14-13.5l12.4-10.8l1-0.8c0,0,0.8,0.8,2,2s2.9,2.7,4.7,4.3
				c4.4,3.9,9.7,8,12,8C90.2,250.3,80.6,287.3,80.6,287.3z"/>
			<path class="st5" d="M65.9,286.1c0.7-2,1.7-3.8,3.1-5.3"/>
			<path class="st8" d="M287.7,193.1c-1.9,2.7-4.1,5.2-6.7,7.3l0,0c-21.9,18.1-72.3,27-72.3,27s-1.7,2.5-4.3,6.1
				c-4.7,6.5-12.3,16.4-18.5,21.4l0,0c-2.6,2.1-5,3.3-6.8,3l9.5,34.9l4.2,15.2c0,0-43.5,19-117.8-2.7c0,0-0.9-9.7-0.2-11.8
				c0-0.1,0.1-0.2,0.1-0.3c0.8-1.4,1.7-2.6,2.9-3.7c0,0-0.4-6.2-0.6-12.6c-0.2-4-0.2-8.1,0.1-12.1c0.5-3.2,2.9-10.9,4.1-14.7
				l0.7-2.2l-3.7-34.6l-1.1-10l-0.1-0.5c0-0.1,0-0.1,0-0.2l-0.6-5.4L57.5,203c0,0,1,2.2,2.4,5.4c2.5,5.8,6.2,14.5,7,18
				c0.1,0.3,0.1,0.6,0.2,0.8c1.8,5,8.5,9.6,8.5,9.6L57.5,258l-5.4-3.7c-0.7,0.5-1.4,1-2.2,1.4c-3.5,1.9-10.9,4.7-19,0.4
				c-3.5-2-6.6-4.7-8.9-7.9C7.8,229.8,1.6,214.7,3.6,197s81.5-72.2,97.3-71.6l23.5,5.2c0.5-0.4,1.9-1.5,2.9-1.5
				c4.3,0.2,4.4,5.2,4.4,5.2l52.6,8.5c0,0,5.5-2.7,6.4-2.7c1.4,0.1,2.6,0.9,3.3,2.1c0,0,13.6-8.2,18-6.3
				C226.6,142,298.3,176.9,287.7,193.1z"/>
			<path class="st7" d="M105,279.5c-6,6.6-14,10.9-22.8,12.4c-2.8,0.4-5.2,0.9-7.3,1.3c0.8-1.4,1.7-2.6,2.9-3.7
				c0,0-0.4-6.2-0.6-12.6C83.3,281,94.1,285.7,105,279.5z"/>
			<path class="st7" d="M81.3,250.1l0.7-2.2l-3.7-34.6c5.5,7.9,25.2,34.9,38.8,37.9C131.4,254.1,93.4,259.5,81.3,250.1z"/>
			<path class="st7" d="M188.5,292.8c-14.9-1.7-35.8-5.4-37.9-13.2c-3.3-12.1,12.6-19.4,35.3-24.7c-2.6,2.1-5,3.3-6.8,3L188.5,292.8
				z"/>
			<path class="st7" d="M280.9,200.4c-21.9,18.1-72.3,27-72.3,27s-1.7,2.5-4.3,6.1c-7.4-17.7-8.5-37.4-3.2-55.9c0,0,3.9,21,20,26
				c0,0-12.3-9.2-8-31.3c0,0,4.2,26,31.6,33.2C258.1,209.1,271.1,205.2,280.9,200.4z"/>
			<path class="st7" d="M77.2,202.7l-0.6-5.6l-19.1,5.8c0,0,1,2.2,2.4,5.4c-7.3-0.8-21.2,6-23.6-1.4c-2.9-8.9,15-5.9,15-5.9
				l16.9-9.9c-3.2-13.7,4.9-24,4.9-24l1.6,9.6c0.7-18.2,7.9-28.1,7.9-28.1C76.7,163.1,76.8,198.5,77.2,202.7z"/>
			<path class="st7" d="M75.7,236.8L57.6,258l-5.4-3.7c-0.7,0.5-1.4,1-2.2,1.4c-3.5,1.9-10.9,4.7-19,0.4c5.9-8.1,18-20.1,32.4-24.7
				c-3.5,5.3-6.7,10.8-9.5,16.4l3.7,3.7C57.6,251.4,66.9,240.8,75.7,236.8z"/>
			<path class="st7" d="M119.6,143.6c0,1.9-1.2,23,14.2,28.6s29.1-3.9,29.1-3.9s-23.6,22.8-38,10.6S119.6,143.6,119.6,143.6z"/>
			<path class="st20" d="M75,305.3c0,0-0.8-9.7-0.2-11.8c0.5-1.7,3-4,3-4s-1.3-19.7-0.5-24.7c0.7-4.4,4.7-17,4.7-17l-5.4-50.7
				L57.5,203c0,0,8.1,18,9.4,23.3c1.3,5.3,8.8,10.5,8.8,10.5l-18.1,21.1l-5.4-3.7c0,0-15.8,12.4-30.1-6.1S1.7,214.6,3.7,196.9
				s81.6-72.2,97.3-71.6l23.5,5.2c0.5-0.4,1.9-1.5,2.9-1.5c4.3,0.2,4.4,5.2,4.4,5.2l52.6,8.5c0,0,5.5-2.7,6.4-2.7
				c1.4,0.1,2.6,0.9,3.3,2.1c0,0,13.6-8.1,18-6.3c14.4,6.2,86.1,41.1,75.5,57.3c-15.1,23-79,34.3-79,34.3s-21.2,32-29.6,30.5
				l13.7,50.1"/>
			<path class="st21" d="M232.1,196.6c24.1,15.9,43.6,13,58.8-7.5c0,0,12.7-16.4,11.8-34s-5.1-75.1-60.1-60.4
				c-9,2.4-30.2,30.7-31.9,38.5c-0.8,3.5-9.3,21.6-17.5,40.3"/>
			<path d="M166.8,27.7c0,0,15.4-2.3,26.1,7.2c13.5,12.1,28.7,44.7,7.1,98.7c0,0-31.9-21.2-86.4-7c0,0,4.7-12.7-3.5-52.6
				C106.3,56,115.7,14.4,166.8,27.7z"/>
			<path class="st22" d="M143.5,163.2c22.8,3.7,46.9-21.5,46.9-21.5s-12.4-1.5-13.5-7.3c-3.5-18.3,10.7-41,10.7-41
				s-55.3,1.5-45.6,14c1.8,2.3,3.3,4.8,4.4,7.5c3.4,8.2,1,14.4-0.8,16c-0.1,0.1-0.3,0.2-0.4,0.3c-3.3,1.5-17.1-0.8-17.1-0.8
				S122.7,159.9,143.5,163.2z"/>
			<path class="st23" d="M182.6,148.7c0,0-10.5,4.2-25.9,3l-6.9,3.4"/>
			<path class="st23" d="M142.9,154.5l-0.5-4.5c0,0-11.3-3.5-14.9-10.3"/>
			<path class="st9" d="M145.7,130.9c16.9,4.4,24.9-17.3,24.9-17.3s-13.5-4-24.1,1.3C149.8,123.2,147.5,129.4,145.7,130.9z"/>
			<path class="st10" d="M188.7,82c4.1-23.1-0.5-50.8-35.6-48.5c-25.1,1.6-24.9,29.2-23.3,37.4c2.8,13.8-1.2,19.3,3.1,30.9
				c3.1,8.4,10.3,17.7,18.8,21.2c5.2,2.1,26.3-12.6,27.9-19.4"/>
			<path class="st5" d="M144.5,75.2c-0.2,2.6-0.5,9-6,13.8c-3.6,3.1,4.6,6.2,4.6,6.2"/>
			<path class="st5" d="M138.6,66c0,0-7.8-3.8-13,2.5"/>
			<path class="st5" d="M151.6,65.5c5.5-1.6,11.3-1.4,16.6,0.7"/>
			<path class="st24" d="M159.7,76.4c0.2,2.2,1.7,3.9,3.4,3.7s2.7-2.1,2.5-4.4s-1.7-3.9-3.4-3.7S159.4,74.2,159.7,76.4z"/>
			<path class="st5" d="M143.4,102.5c6.2-0.9,12.1-3,17.4-6.3c0,0,0.7,9.7-7.4,11.7c-6.2,1.6-8.6-5.6-8.6-5.6"/>
			<path d="M166.3,42.3c0,0-2.2,27.4,22,37.3l11.3-26.3l-17.1-19l-25.8-7.5c-38.6,2.4-55.2,26.4-33.8,90.2
				C122.8,117,116.8,41,166.3,42.3z"/>
			<path class="st10" d="M182.9,80.7c-0.3-3.1,7.5-10.9,10.1-5.9c4.5,8.6,1.2,16-3.4,19c-2.1,1.3-4.7,3.8-6.6,1.4"/>
			<path class="st24" d="M136.1,77.5c0.2,2.2,1.8,3.9,3.4,3.7s2.7-2.1,2.5-4.4s-1.8-3.9-3.4-3.7S135.9,75.2,136.1,77.5z"/>
			<g class="st11">
				<path class="st25" d="M119.4,73c-0.3,1.9-0.5,3.7-0.6,5.6"/>
				<path class="st25" d="M162.3,37.3c-19.5-0.5-37.7,11.9-42,31.5"/>
				<path class="st25" d="M158.8,31.7c0,0-28.2-6.6-38.7,12.1"/>
				<path class="st25" d="M181.6,64.3c1.7,2.4,3.7,4.6,6.1,6.4"/>
				<path class="st25" d="M170.4,35.3c1.4,9,4.5,17.6,8.9,25.5"/>
				<path class="st25" d="M198.8,120.1c-0.5,2.2-1.1,4.5-1.8,6.7"/>
				<path class="st25" d="M197.1,82.9c4.6,10.1,4.3,22.8,2.4,33.5"/>
				<path class="st25" d="M193.8,100.5c0.5,7.8-2.4,15.4-8,20.9"/>
				<path class="st25" d="M180.8,38.6c4.8,6.5,8.4,13.4,13.9,19.4c5.9,6.2,11.7,13.4,12.8,22.1"/>
				<path class="st25" d="M174,31.9c1.4,0.9,2.6,2,3.8,3.1"/>
			</g>
			<path class="st13" d="M270.4,182.3c-0.6,0.1-1.1,0.2-1.7,0.3c-15.1,2.2-32.1-10.4-37.8-25.4c-4.5-11.9-0.6-25.4,1.6-31.1
				c0.7-1.8,1.2-2.9,1.2-2.9c9.1-13,62.1,12.5,62.8,26.5S285.9,178.9,270.4,182.3z"/>
			<path class="st2" d="M287,151.5c0,0-3,22.3-18.3,31c-15.1,2.2-32.1-10.4-37.8-25.4c-4.5-11.9-0.6-25.4,1.6-31.1l0,0
				C250.4,115.8,287,151.5,287,151.5z"/>
			<g>
				<g>
					<g>
						<g>
							<g>
								<defs>
									<path id="SVGID_7_" d="M287,151.5c0,0-3,22.3-18.3,31c-15.1,2.2-32.1-10.4-37.8-25.4c-4.5-11.9-0.6-25.4,1.6-31.1l0,0
										C250.4,115.8,287,151.5,287,151.5z"/>
								</defs>
								<clipPath id="SVGID_8_">
									<use xlink:href="#SVGID_7_"  style="overflow:visible;"/>
								</clipPath>
								<g class="st26">
									<path class="st19" d="M287,151.5c0,0-3,22.3-18.3,31c-15.1,2.2-32.1-10.4-37.8-25.4c-4.5-11.9-0.6-25.4,1.6-31.1l0,0
										C250.4,115.8,287,151.5,287,151.5z"/>
								</g>
							</g>
						</g>
					</g>
				</g>
			</g>
			<path class="st27" d="M287,151.5c0,0-3,22.3-18.3,31c-15.1,2.2-32.1-10.4-37.8-25.4c-4.5-11.9-0.6-25.4,1.6-31.1l0,0
				C250.4,115.8,287,151.5,287,151.5z"/>
			<path class="st23" d="M224.5,163.3c0,0,17.2,24.7,37.3,26.8s33-14.9,33.8-27.6"/>
			<path class="st22" d="M214.8,51.7c1.5-4.2,12.4-2.8,15.8,10.4s17,45.3,17,45.3s54-79.4,63.6-82.5s5.9,10.7-7.1,29.8
				c0,0,12.1-2.1,15.3,0s1.6,15,3.3,19.5c2.8,7.5-3.5,9.1-3.5,9.1c3.1,0.1,6.1,1.2,8.4,3.2c3.5,3.2,1.7,16.7,2.7,20.5
				c1,3.8-5.6,7-5.6,7s15.9,8.7,12.3,10.9c-6.1,3.7-9.5-0.1-9.5-0.1s-24.5,30.7-42.9,37.5s-54.3-20.3-58.2-35.1s0.8-13.9-2.2-38.5
				S214.8,51.7,214.8,51.7z"/>
			<path class="st22" d="M222.4,21.4l71.1-18.5c2.5-0.7,5.1,0.9,5.8,3.4l33.6,128.9c0.7,2.5-0.9,5.1-3.4,5.8l-71.1,18.5
				c-2.5,0.7-5.1-0.9-5.8-3.4L219,27.2C218.4,24.7,219.9,22.1,222.4,21.4z"/>
			<path class="st8" d="M252.8,17.7c0.2,0.6-0.2,1.2-0.8,1.4c-0.6,0.2-1.2-0.2-1.4-0.8c-0.2-0.6,0.2-1.2,0.8-1.4l0,0
				C252,16.7,252.6,17.1,252.8,17.7z"/>
			<path class="st8" d="M267.4,13.9c0.1,0.4-0.1,0.8-0.5,0.9l0,0c-0.4,0.1-0.8-0.1-0.9-0.5s0.1-0.8,0.5-0.9S267.3,13.5,267.4,13.9z"
				/>
			<path class="st15" d="M255.3,17.9l8.6-2.2c0.2,0,0.3,0.1,0.4,0.2v0.2c0,0.2-0.1,0.3-0.2,0.4l-8.6,2.2c-0.2,0-0.3-0.1-0.4-0.2
				v-0.2C255.1,18.1,255.2,18,255.3,17.9z"/>
			<path class="st28" d="M297.1,7.6l33.4,127.9c0.4,1.5-0.5,3-2,3.4l-70.2,18.3c-1.5,0.4-3-0.5-3.4-2L221.6,27.3
				c-0.4-1.5,0.5-3,2-3.4l14.4-3.8c0.9-0.2,1.9,0.1,2.5,0.9l1,1.5c0.6,0.8,1.6,1.2,2.5,0.9l31.6-8.2c0.9-0.2,1.6-1,1.7-2l0.2-1.8
				c0.1-1,0.8-1.8,1.7-2l14.4-3.8C295.2,5.3,296.7,6.1,297.1,7.6z"/>
			<circle class="st22" cx="276" cy="81.1" r="37.4"/>
			<polyline class="st29" points="283.8,104.7 268.8,54 246.6,88.2 305.8,71.9 			"/>
			<g>
				<path class="st20" d="M268.8,54c1-0.3,1.6-1.5,1.3-2.5l0,0c-0.3-1-1.5-1.6-2.5-1.3s-1.6,1.5-1.3,2.5
					C266.6,53.8,267.7,54.4,268.8,54z"/>
				<path class="st20" d="M244.2,86.8c-1.1,0.3-1.7,1.4-1.4,2.4c0.3,1.1,1.4,1.7,2.4,1.4l0,0c1.1-0.3,1.7-1.4,1.4-2.4
					S245.3,86.5,244.2,86.8z"/>
				<path class="st20" d="M307.2,69.5c-1.1,0.3-1.7,1.4-1.4,2.5c0.3,1.1,1.4,1.7,2.5,1.4l0,0c1-0.3,1.6-1.4,1.3-2.5
					C309.4,69.8,308.3,69.2,307.2,69.5z"/>
				<path class="st20" d="M283.8,104.7c-1.1,0.3-1.7,1.4-1.4,2.5l0,0l0,0c0.3,1,1.4,1.6,2.5,1.3s1.7-1.4,1.4-2.5
					C286,105,284.9,104.4,283.8,104.7z"/>
			</g>
			<path class="st23" d="M208.7,227.4c0,0-12.1-28.2-6-62.5"/>
			<path class="st23" d="M179.1,257.9c0,0-24.5,7.5-27,13.1s11,0.9,11,0.9"/>
			<path class="st23" d="M194.2,142.1c0,0-22.6,22.4-37.7,28.4"/>
			<path class="st23" d="M120.1,136c0,0-4.1,30.2,11.2,36"/>
			<path class="st23" d="M76.6,197.1c0,0-0.1-39.6,7.8-51.9"/>
			<path class="st20" d="M73.7,156.7c0,0-2.2,24.6,2.8,32.6"/>
			<path class="st20" d="M57.5,203c0,0-17.2-5.9-20.8,1.4s10.2,0.8,10.2,0.8"/>
			<path class="st20" d="M67.8,228.7c0,0-16.9,9.5-17.8,15"/>
			<path class="st20" d="M95.4,202.4c0,0,32.3,48.8,50.1,44.4"/>
			<path class="st20" d="M117.5,270.9c0,0-25.3,18.6-29,17"/>
			<path class="st7" d="M294.9,191.6c1.7-1.4,2.8-2.3,3.2-2.6C297.7,189.3,296.6,190.3,294.9,191.6z"/>
			<polygon class="st20" points="268.1,95.6 285.5,64.7 261.1,71.3 292.4,89 			"/>
			<circle class="st20" cx="276.6" cy="80.2" r="17.1"/>
			<polygon class="st20" points="261.1,71.3 268.1,95.6 292.4,89 285.5,64.7 			"/>
		</g>
		<line class="st30" x1="283.8" y1="104.7" x2="305.7" y2="72.2"/>
	</g>
</g>
<g id="Camada_2_1_" class="st0">
	<rect x="50.5" y="3.6" class="st31" width="184.5" height="184.5"/>
	<line class="st31" x1="50.5" y1="3.6" x2="235" y2="188.1"/>
	<line class="st31" x1="235" y1="3.6" x2="50.5" y2="188.1"/>
	<circle class="st31" cx="143.4" cy="95.9" r="129.4"/>
	<path class="st31" d="M-17.3,94.2h321.4H-17.3z"/>
	<path class="st31" d="M143.4-66.5v321.4V-66.5z"/>
</g>
</svg>
