<?xml version="1.0" encoding="utf-8"?>
<!-- Generator: Adobe Illustrator 25.0.0, SVG Export Plug-In . SVG Version: 6.00 Build 0)  -->
<svg version="1.1" xmlns="http://www.w3.org/2000/svg" xmlns:xlink="http://www.w3.org/1999/xlink" x="0px" y="0px"
	 viewBox="0 0 500 500" style="enable-background:new 0 0 500 500;" xml:space="preserve">
<style type="text/css">
	.st0{display:none;}
	.st1{display:inline;}
	.st2{fill:#FFFFFF;}
	.st3{clip-path:url(#SVGID_2_);}
	.st4{opacity:0.4;fill:#00FF6A;enable-background:new    ;}
	.st5{fill:none;stroke:#263238;stroke-linecap:round;stroke-linejoin:round;}
	.st6{fill:#00FF6A;}
	.st7{opacity:0.2;enable-background:new    ;}
	.st8{fill:#00FF6A;stroke:#263238;stroke-linecap:round;stroke-linejoin:round;}
	.st9{fill:#263238;}
	.st10{fill:#FFFFFF;stroke:#263238;stroke-linecap:round;stroke-linejoin:round;}
	.st11{opacity:0.2;}
	.st12{fill:none;stroke:#FFFFFF;stroke-linecap:round;stroke-linejoin:round;}
	.st13{fill:#263238;stroke:#263238;stroke-linecap:round;stroke-linejoin:round;}
	.st14{clip-path:url(#SVGID_4_);}
	.st15{fill:#00FF6A;stroke:#263238;stroke-width:1.0017;stroke-linecap:round;stroke-linejoin:round;stroke-miterlimit:4.0068;}
	.st16{fill:none;stroke:#26343B;stroke-miterlimit:10;}
	.st17{fill:#00FF6A;stroke:#26343B;stroke-miterlimit:10;}
	.st18{clip-path:url(#SVGID_6_);}
	.st19{opacity:0.4;fill:#171717;enable-background:new    ;}
	.st20{fill:none;stroke:#212121;stroke-miterlimit:10;}
	.st21{fill:#00FF6A;stroke:#212121;stroke-linecap:round;stroke-linejoin:round;}
	.st22{fill:#171717;}
	.st23{fill:#FFFFFF;stroke:#212121;stroke-linecap:square;stroke-linejoin:round;stroke-miterlimit:10;}
	.st24{fill:none;stroke:#212121;stroke-linecap:round;stroke-miterlimit:10;}
	.st25{fill:none;stroke:#828282;stroke-linecap:round;stroke-linejoin:round;}
	.st26{clip-path:url(#SVGID_8_);}
	.st27{fill:none;stroke:#212121;stroke-linecap:round;stroke-linejoin:round;}
	.st28{fill:#212121;}
	.st29{fill:#00FF6A;stroke:#212121;stroke-linecap:square;stroke-linejoin:round;stroke-miterlimit:10;}
	.st30{fill:none;stroke:#212121;stroke-linejoin:round;stroke-miterlimit:10;}
	.st31{fill:none;stroke:#000000;stroke-width:5;stroke-miterlimit:10;}
</style>
<g id="Camada_2" class="st0">
	<g id="Camada_1_2_" class="st1">
		<g id="Camada_1_1_" class="st0">
			<g id="freepik--Character--inject-626" class="st1">
				<path class="st2" d="M185.7,433.8c0,0-11.9,8.1-16.7,7.5c-0.5,0-1-0.2-1.4-0.6c-3.1-3.2-5.6-8.9-5.6-8.9s1.5-2.1,6.1,3.4
					l2.9-2.7l-6-6.1c0,0,3.4-2.7,9.1,0.7c-0.2-0.4-3.9-8.5-1.1-19.5l-14-13.5l12.4-10.8l1-0.8c0,0,0.8,0.8,2,2s2.9,2.7,4.7,4.3
					c4.4,3.9,9.7,8,12,8C195.3,396.8,185.7,433.8,185.7,433.8z"/>
				<g>
					<g>
						<g>
							<g>
								<g>
									<g>
										<defs>
											<path id="SVGID_1_" d="M185.7,433.8c0,0-11.9,8.1-16.7,7.5c-0.5,0-1-0.2-1.4-0.6c-3.1-3.2-5.6-8.9-5.6-8.9
												s1.5-2.1,6.1,3.4l2.9-2.7l-6-6.1c0,0,3.4-2.7,9.1,0.7c-0.2-0.4-3.9-8.5-1.1-19.5l-14-13.5l12.4-10.8l1-0.8
												c0,0,0.8,0.8,2,2s2.9,2.7,4.7,4.3c4.4,3.9,9.7,8,12,8C195.3,396.8,185.7,433.8,185.7,433.8z"/>
										</defs>
										<clipPath id="SVGID_2_">
											<use xlink:href="#SVGID_1_"  style="overflow:visible;"/>
										</clipPath>
										<g class="st3">
											<path class="st4" d="M176.5,428.5c0,0-6.8,7-7.5,12.9c-0.5,0-1-0.2-1.4-0.6c-3.1-3.2-5.6-8.9-5.6-8.9s1.5-2.1,6.1,3.4
												l2.9-2.7l-6-6.1c0,0,3.4-2.7,9.1,0.7c-0.2-0.4-3.9-8.5-1.1-19.5l-14-13.5l12.4-10.8l3,1.1c1.2,1.2,2.9,2.7,4.7,4.3
												c-2.6,3.9-8.3,11.8-8.3,11.8l4.9,6.6C175.8,407.3,172.8,423.9,176.5,428.5z"/>
										</g>
									</g>
								</g>
							</g>
						</g>
					</g>
				</g>
				<path class="st5" d="M185.7,433.8c0,0-11.9,8.1-16.7,7.5c-0.5,0-1-0.2-1.4-0.6c-3.1-3.2-5.6-8.9-5.6-8.9s1.5-2.1,6.1,3.4
					l2.9-2.7l-6-6.1c0,0,3.4-2.7,9.1,0.7c-0.2-0.4-3.9-8.5-1.1-19.5l-14-13.5l12.4-10.8l1-0.8c0,0,0.8,0.8,2,2s2.9,2.7,4.7,4.3
					c4.4,3.9,9.7,8,12,8C195.3,396.8,185.7,433.8,185.7,433.8z"/>
				<path class="st5" d="M171,432.6c0.7-2,1.7-3.8,3.1-5.3"/>
				<path class="st6" d="M392.8,339.6c-1.9,2.7-4.1,5.2-6.7,7.3l0,0c-21.9,18.1-72.3,27-72.3,27s-1.7,2.5-4.3,6.1
					c-4.7,6.5-12.3,16.4-18.5,21.4l0,0c-2.6,2.1-5,3.3-6.8,3l9.5,34.9l4.2,15.2c0,0-43.5,19-117.8-2.7c0,0-0.9-9.7-0.2-11.8
					c0-0.1,0.1-0.2,0.1-0.3c0.8-1.4,1.7-2.6,2.9-3.7c0,0-0.4-6.2-0.6-12.6c-0.2-4-0.2-8.1,0.1-12.1c0.5-3.2,2.9-10.9,4.1-14.7
					l0.7-2.2l-3.7-34.6l-1.1-10l-0.1-0.5c0-0.1,0-0.1,0-0.2l-0.6-5.4l-19.1,5.8c0,0,1,2.2,2.4,5.4c2.5,5.8,6.2,14.5,7,18
					c0.1,0.3,0.1,0.6,0.2,0.8c1.8,5,8.5,9.6,8.5,9.6l-18.1,21.2l-5.4-3.7c-0.7,0.5-1.4,1-2.2,1.4c-3.5,1.9-10.9,4.7-19,0.4
					c-3.5-2-6.6-4.7-8.9-7.9c-14.2-18.4-20.4-33.5-18.4-51.2s81.5-72.2,97.3-71.6l23.5,5.2c0.5-0.4,1.9-1.5,2.9-1.5
					c4.3,0.2,4.4,5.2,4.4,5.2l52.6,8.5c0,0,5.5-2.7,6.4-2.7c1.4,0.1,2.6,0.9,3.3,2.1c0,0,13.6-8.2,18-6.3
					C331.7,288.5,403.4,323.4,392.8,339.6z"/>
				<path class="st7" d="M210.1,426c-6,6.6-14,10.9-22.8,12.4c-2.8,0.4-5.2,0.9-7.3,1.3c0.8-1.4,1.7-2.6,2.9-3.7
					c0,0-0.4-6.2-0.6-12.6C188.4,427.5,199.2,432.2,210.1,426z"/>
				<path class="st7" d="M186.4,396.6l0.7-2.2l-3.7-34.6c5.5,7.9,25.2,34.9,38.8,37.9C236.5,400.6,198.5,406,186.4,396.6z"/>
				<path class="st7" d="M293.6,439.3c-14.9-1.7-35.8-5.4-37.9-13.2c-3.3-12.1,12.6-19.4,35.3-24.7c-2.6,2.1-5,3.3-6.8,3
					L293.6,439.3z"/>
				<path class="st7" d="M386,346.9c-21.9,18.1-72.3,27-72.3,27s-1.7,2.5-4.3,6.1c-7.4-17.7-8.5-37.4-3.2-55.9c0,0,3.9,21,20,26
					c0,0-12.3-9.2-8-31.3c0,0,4.2,26,31.6,33.2C363.2,355.6,376.2,351.7,386,346.9z"/>
				<path class="st7" d="M182.3,349.2l-0.6-5.6l-19.1,5.8c0,0,1,2.2,2.4,5.4c-7.3-0.8-21.2,6-23.6-1.4c-2.9-8.9,15-5.9,15-5.9
					l16.9-9.9c-3.2-13.7,4.9-24,4.9-24l1.6,9.6c0.7-18.2,7.9-28.1,7.9-28.1C181.8,309.6,181.9,345,182.3,349.2z"/>
				<path class="st7" d="M180.8,383.3l-18.1,21.2l-5.4-3.7c-0.7,0.5-1.4,1-2.2,1.4c-3.5,1.9-10.9,4.7-19,0.4
					c5.9-8.1,18-20.1,32.4-24.7c-3.5,5.3-6.7,10.8-9.5,16.4l3.7,3.7C162.7,397.9,172,387.3,180.8,383.3z"/>
				<path class="st7" d="M224.7,290.1c0,1.9-1.2,23,14.2,28.6s29.1-3.9,29.1-3.9s-23.6,22.8-38,10.6S224.7,290.1,224.7,290.1z"/>
				<path class="st5" d="M180.1,451.8c0,0-0.8-9.7-0.2-11.8c0.5-1.7,3-4,3-4s-1.3-19.7-0.5-24.7c0.7-4.4,4.7-17,4.7-17l-5.4-50.7
					l-19.1,5.9c0,0,8.1,18,9.4,23.3s8.8,10.5,8.8,10.5l-18.1,21.1l-5.4-3.7c0,0-15.8,12.4-30.1-6.1s-20.4-33.5-18.4-51.2
					s81.6-72.2,97.3-71.6l23.5,5.2c0.5-0.4,1.9-1.5,2.9-1.5c4.3,0.2,4.4,5.2,4.4,5.2l52.6,8.5c0,0,5.5-2.7,6.4-2.7
					c1.4,0.1,2.6,0.9,3.3,2.1c0,0,13.6-8.1,18-6.3c14.4,6.2,86.1,41.1,75.5,57.3c-15.1,23-79,34.3-79,34.3s-21.2,32-29.6,30.5
					l13.7,50.1"/>
				<path class="st8" d="M337.2,343.1c24.1,15.9,43.6,13,58.8-7.5c0,0,12.7-16.4,11.8-34s-5.1-75.1-60.1-60.4
					c-9,2.4-30.2,30.7-31.9,38.5c-0.8,3.5-9.3,21.6-17.5,40.3"/>
				<path class="st9" d="M271.9,174.2c0,0,15.4-2.3,26.1,7.2c13.5,12.1,28.7,44.7,7.1,98.7c0,0-31.9-21.2-86.4-7
					c0,0,4.7-12.7-3.5-52.6C211.4,202.5,220.8,160.9,271.9,174.2z"/>
				<path class="st10" d="M248.6,309.7c22.8,3.7,46.9-21.5,46.9-21.5s-12.4-1.5-13.5-7.3c-3.5-18.3,10.7-41,10.7-41
					s-55.3,1.5-45.6,14c1.8,2.3,3.3,4.8,4.4,7.5c3.4,8.2,1,14.4-0.8,16c-0.1,0.1-0.3,0.2-0.4,0.3c-3.3,1.5-17.1-0.8-17.1-0.8
					S227.8,306.4,248.6,309.7z"/>
				<path class="st5" d="M287.7,295.2c0,0-10.5,4.2-25.9,3l-6.9,3.4"/>
				<path class="st5" d="M248,301l-0.5-4.5c0,0-11.3-3.5-14.9-10.3"/>
				<path class="st9" d="M250.8,277.4c16.9,4.4,24.9-17.3,24.9-17.3s-13.5-4-24.1,1.3C254.9,269.7,252.6,275.9,250.8,277.4z"/>
				<path class="st10" d="M293.8,228.5c4.1-23.1-0.5-50.8-35.6-48.5c-25.1,1.6-24.9,29.2-23.3,37.4c2.8,13.8-1.2,19.3,3.1,30.9
					c3.1,8.4,10.3,17.7,18.8,21.2c5.2,2.1,26.3-12.6,27.9-19.4"/>
				<path class="st5" d="M249.6,221.7c-0.2,2.6-0.5,9-6,13.8c-3.6,3.1,4.6,6.2,4.6,6.2"/>
				<path class="st5" d="M243.7,212.5c0,0-7.8-3.8-13,2.5"/>
				<path class="st5" d="M256.7,212c5.5-1.6,11.3-1.4,16.6,0.7"/>
				<path class="st9" d="M264.8,222.9c0.2,2.2,1.7,3.9,3.4,3.7s2.7-2.1,2.5-4.4s-1.7-3.9-3.4-3.7S264.5,220.7,264.8,222.9z"/>
				<path class="st5" d="M248.5,249c6.2-0.9,12.1-3,17.4-6.3c0,0,0.7,9.7-7.4,11.7c-6.2,1.6-8.6-5.6-8.6-5.6"/>
				<path class="st9" d="M271.4,188.8c0,0-2.2,27.4,22,37.3l11.3-26.3l-17.1-19l-25.8-7.5c-38.6,2.4-55.2,26.4-33.8,90.2
					C227.9,263.5,221.9,187.5,271.4,188.8z"/>
				<path class="st10" d="M288,227.2c-0.3-3.1,7.5-10.9,10.1-5.9c4.5,8.6,1.2,16-3.4,19c-2.1,1.3-4.7,3.8-6.6,1.4"/>
				<path class="st9" d="M241.2,224c0.2,2.2,1.8,3.9,3.4,3.7s2.7-2.1,2.5-4.4s-1.8-3.9-3.4-3.7S241,221.7,241.2,224z"/>
				<g class="st11">
					<path class="st12" d="M224.5,219.5c-0.3,1.9-0.5,3.7-0.6,5.6"/>
					<path class="st12" d="M267.4,183.8c-19.5-0.5-37.7,11.9-42,31.5"/>
					<path class="st12" d="M263.9,178.2c0,0-28.2-6.6-38.7,12.1"/>
					<path class="st12" d="M286.7,210.8c1.7,2.4,3.7,4.6,6.1,6.4"/>
					<path class="st12" d="M275.5,181.8c1.4,9,4.5,17.6,8.9,25.5"/>
					<path class="st12" d="M303.9,266.6c-0.5,2.2-1.1,4.5-1.8,6.7"/>
					<path class="st12" d="M302.2,229.4c4.6,10.1,4.3,22.8,2.4,33.5"/>
					<path class="st12" d="M298.9,247c0.5,7.8-2.4,15.4-8,20.9"/>
					<path class="st12" d="M285.9,185.1c4.8,6.5,8.4,13.4,13.9,19.4c5.9,6.2,11.7,13.4,12.8,22.1"/>
					<path class="st12" d="M279.1,178.4c1.4,0.9,2.6,2,3.8,3.1"/>
				</g>
				<path class="st13" d="M375.5,328.8c-0.6,0.1-1.1,0.2-1.7,0.3c-15.1,2.2-32.1-10.4-37.8-25.4c-4.5-11.9-0.6-25.4,1.6-31.1
					c0.7-1.8,1.2-2.9,1.2-2.9c9.1-13,62.1,12.5,62.8,26.5S391,325.4,375.5,328.8z"/>
				<path class="st2" d="M392.1,298c0,0-3,22.3-18.3,31c-15.1,2.2-32.1-10.4-37.8-25.4c-4.5-11.9-0.6-25.4,1.6-31.1l0,0
					C355.5,262.3,392.1,298,392.1,298z"/>
				<g>
					<g>
						<g>
							<g>
								<g>
									<g>
										<defs>
											<path id="SVGID_3_" d="M392.1,298c0,0-3,22.3-18.3,31c-15.1,2.2-32.1-10.4-37.8-25.4c-4.5-11.9-0.6-25.4,1.6-31.1l0,0
												C355.5,262.3,392.1,298,392.1,298z"/>
										</defs>
										<clipPath id="SVGID_4_">
											<use xlink:href="#SVGID_3_"  style="overflow:visible;"/>
										</clipPath>
										<g class="st14">
											<path class="st4" d="M392.1,298c0,0-3,22.3-18.3,31c-15.1,2.2-32.1-10.4-37.8-25.4c-4.5-11.9-0.6-25.4,1.6-31.1l0,0
												C355.5,262.3,392.1,298,392.1,298z"/>
										</g>
									</g>
								</g>
							</g>
						</g>
					</g>
				</g>
				<path class="st5" d="M392.1,298c0,0-3,22.3-18.3,31c-15.1,2.2-32.1-10.4-37.8-25.4c-4.5-11.9-0.6-25.4,1.6-31.1l0,0
					C355.5,262.3,392.1,298,392.1,298z"/>
				<path class="st5" d="M329.6,309.8c0,0,17.2,24.7,37.3,26.8s33-14.9,33.8-27.6"/>
				<path class="st10" d="M319.9,198.2c1.5-4.2,12.4-2.8,15.8,10.4s17,45.3,17,45.3s54-79.4,63.6-82.5s5.9,10.7-7.1,29.8
					c0,0,12.1-2.1,15.3,0s1.6,15,3.3,19.5c2.8,7.5-3.5,9.1-3.5,9.1c3.1,0.1,6.1,1.2,8.4,3.2c3.5,3.2,1.7,16.7,2.7,20.5
					c1,3.8-5.6,7-5.6,7s15.9,8.7,12.3,10.9c-6.1,3.7-9.5-0.1-9.5-0.1s-24.5,30.7-42.9,37.5s-54.3-20.3-58.2-35.1s0.8-13.9-2.2-38.5
					S319.9,198.2,319.9,198.2z"/>
				<path class="st10" d="M327.5,167.9l71.1-18.5c2.5-0.7,5.1,0.9,5.8,3.4L438,281.7c0.7,2.5-0.9,5.1-3.4,5.8L363.5,306
					c-2.5,0.7-5.1-0.9-5.8-3.4l-33.6-128.9C323.5,171.2,325,168.6,327.5,167.9z"/>
				<path class="st8" d="M357.9,164.2c0.2,0.6-0.2,1.2-0.8,1.4c-0.6,0.2-1.2-0.2-1.4-0.8c-0.2-0.6,0.2-1.2,0.8-1.4l0,0
					C357.1,163.2,357.7,163.6,357.9,164.2z"/>
				<path class="st8" d="M372.5,160.4c0.1,0.4-0.1,0.8-0.5,0.9l0,0c-0.4,0.1-0.8-0.1-0.9-0.5s0.1-0.8,0.5-0.9S372.4,160,372.5,160.4
					z"/>
				<path class="st15" d="M360.4,164.4l8.6-2.2c0.2,0,0.3,0.1,0.4,0.2v0.2c0,0.2-0.1,0.3-0.2,0.4l-8.6,2.2c-0.2,0-0.3-0.1-0.4-0.2
					v-0.2C360.2,164.6,360.3,164.5,360.4,164.4z"/>
				<path class="st8" d="M402.2,154.1L435.6,282c0.4,1.5-0.5,3-2,3.4l-70.2,18.3c-1.5,0.4-3-0.5-3.4-2l-33.3-127.9
					c-0.4-1.5,0.5-3,2-3.4l14.4-3.8c0.9-0.2,1.9,0.1,2.5,0.9l1,1.5c0.6,0.8,1.6,1.2,2.5,0.9l31.6-8.2c0.9-0.2,1.6-1,1.7-2l0.2-1.8
					c0.1-1,0.8-1.8,1.7-2l14.4-3.8C400.3,151.8,401.8,152.6,402.2,154.1z"/>
				<circle class="st10" cx="376" cy="211.8" r="29.6"/>
				<g>
					<path class="st16" d="M370.7,194.6c0.7-0.2,1.1-1,0.8-1.6l0,0c-0.2-0.7-1-1-1.6-0.8c-0.7,0.2-1.1,1-0.8,1.6
						C369.3,194.4,370.1,194.8,370.7,194.6z"/>
					<path class="st16" d="M354.7,215.9c-0.7,0.2-1.1,0.9-0.9,1.6c0.2,0.7,0.9,1.1,1.6,0.9l0,0c0.7-0.2,1.1-0.9,0.9-1.6
						S355.4,215.8,354.7,215.9z"/>
					<path class="st16" d="M395.8,204.7c-0.7,0.2-1.1,0.9-0.9,1.6c0.2,0.7,0.9,1.1,1.6,0.9l0,0c0.7-0.2,1.1-0.9,0.9-1.6
						C397.2,204.9,396.5,204.5,395.8,204.7z"/>
					<path class="st16" d="M380.6,227.6c-0.7,0.2-1.1,0.9-0.9,1.6l0,0l0,0c0.2,0.7,0.9,1.1,1.6,0.9c0.7-0.2,1.1-0.9,0.9-1.6
						C382,227.8,381.2,227.4,380.6,227.6z"/>
					<path class="st17" d="M397.8,204.3c-0.9-0.8-2.3-0.8-3.2,0.1c-0.3,0.3-0.5,0.6-0.5,1c-1.7-3.8-5.9-5.8-9.8-4.6l-2.6,0.7
						l-0.4-1.2c-1.3-3.9-5.2-6.3-9.3-5.6c0.8-0.9,0.7-2.3-0.2-3.2c-0.9-0.8-2.3-0.7-3.2,0.2s-0.7,2.3,0.2,3.2c0.3,0.3,0.6,0.4,1,0.5
						c-3.7,1.8-5.6,6.1-4.3,10l0.1,0.4l-3.1,0.8c-4,1-6.6,4.9-6.1,9c-0.3-0.3-0.6-0.5-1-0.6c-1.2-0.3-2.4,0.4-2.8,1.5
						c-0.3,1.2,0.4,2.4,1.5,2.8c1.2,0.3,2.4-0.4,2.8-1.5c1.6,3.8,5.7,5.8,9.7,4.8l3.5-0.9c1.2,3.8,5,6.3,9,5.7
						c-0.8,0.9-0.8,2.3,0.1,3.2s2.3,0.8,3.2-0.1c0.8-0.9,0.8-2.3-0.1-3.2c-0.3-0.3-0.6-0.5-1-0.5c3.6-1.6,5.6-5.6,4.7-9.4l2.7-0.8
						c3.9-1.1,6.4-5,5.9-9.1c0.9,0.8,2.3,0.8,3.2-0.1C398.7,206.6,398.7,205.1,397.8,204.3z M355.4,218.5L355.4,218.5
						c-0.7,0.2-1.4-0.2-1.6-0.9s0.2-1.4,0.9-1.6c0.7-0.2,1.6,0.2,1.8,0.9S356.1,218.3,355.4,218.5z M369.1,193.7
						c-0.2-0.7,0.2-1.4,0.8-1.6c0.7-0.2,1.4,0.1,1.6,0.8l0,0c0.2,0.7-0.1,1.6-0.7,1.8S369.3,194.4,369.1,193.7z M382.2,228.5
						c0.2,0.7-0.2,1.4-0.9,1.6c-0.7,0.2-1.4-0.2-1.6-0.9l0,0l0,0c-0.2-0.7,0.1-1.6,0.8-1.8C381.2,227.3,382,227.8,382.2,228.5z
						 M396.6,207.2L396.6,207.2c-0.7,0.2-1.7-0.2-1.9-0.8c-0.2-0.7,0.4-1.5,1.1-1.7s1.4,0.2,1.6,0.9
						C397.6,206.2,397.3,207,396.6,207.2z"/>
				</g>
				<line class="st5" x1="387.7" y1="216.9" x2="369.8" y2="221.8"/>
				<line class="st5" x1="381.7" y1="201.5" x2="370.3" y2="221.7"/>
				<line class="st5" x1="365.8" y1="205.8" x2="386.2" y2="217.4"/>
				<line class="st5" x1="382.1" y1="201.4" x2="364.8" y2="206.1"/>
				<line class="st5" x1="365.7" y1="205.8" x2="370.3" y2="221.7"/>
				<line class="st5" x1="356.3" y1="216.9" x2="394.7" y2="206.3"/>
				<line class="st5" x1="371.1" y1="194.6" x2="380.6" y2="227.6"/>
				<line class="st5" x1="381.7" y1="201.5" x2="386.2" y2="217.4"/>
				<path class="st9" d="M411,260.7l-40,10.4c-4.8,1.3-9.7-1.6-11-6.4l0,0l0,0c-1.3-4.8,1.6-9.7,6.4-11l0,0l40-10.4
					c4.8-1.2,9.7,1.6,11,6.4l0,0C418.7,254.5,415.8,259.4,411,260.7z"/>
				<path class="st2" d="M366.6,258.6c0.3-0.5,0.7-0.8,1.3-0.9c0.5-0.2,1.1-0.1,1.6,0.2c0.5,0.3,0.8,0.8,0.9,1.4l0.1,0.3l-1.2,0.3
					l-0.1-0.3c0-0.2-0.2-0.4-0.3-0.6c-0.2-0.1-0.4-0.1-0.5-0.1c-0.2,0-0.3,0.2-0.4,0.3c-0.1,0.2-0.1,0.4,0,0.7
					c0.1,0.3,0.3,0.6,0.5,0.8c0.3,0.3,0.7,0.5,1.1,0.7c0.3,0.2,0.6,0.3,0.9,0.5s0.5,0.4,0.7,0.7c0.2,0.3,0.4,0.6,0.5,1
					c0.2,0.5,0.1,1.1-0.1,1.7c-0.6,0.9-1.9,1.2-2.9,0.8c-0.5-0.3-0.8-0.8-0.9-1.4l-0.1-0.5l1.2-0.3l0.1,0.6c0.1,0.5,0.4,0.8,0.9,0.6
					s0.6-0.4,0.5-1c-0.1-0.3-0.3-0.6-0.5-0.8c-0.3-0.3-0.7-0.5-1.1-0.7c-0.3-0.2-0.6-0.4-0.9-0.6s-0.5-0.4-0.7-0.7
					c-0.2-0.3-0.4-0.6-0.5-1C366.3,259.7,366.4,259.1,366.6,258.6z"/>
				<path class="st2" d="M373.5,263.1c0.1,0.5,0.4,0.7,0.9,0.6s0.6-0.5,0.5-1l-1.7-6.4l1.2-0.3l1.6,6.3c0.2,0.5,0.1,1.1-0.1,1.7
					c-0.3,0.5-0.8,0.8-1.3,0.9c-0.5,0.2-1.1,0.1-1.6-0.2c-0.5-0.3-0.8-0.9-0.9-1.4l-1.6-6.3l1.3-0.3L373.5,263.1z"/>
				<path class="st2" d="M378.8,255.4c0.4,0.3,0.8,0.8,0.8,1.3l0.1,0.3c0.1,0.4,0.1,0.7,0.1,1.1c-0.1,0.3-0.2,0.6-0.5,0.8
					c0.7,0.1,1.2,0.6,1.4,1.5l0.2,0.7c0.2,0.5,0.1,1.1-0.1,1.6c-0.3,0.5-0.8,0.8-1.3,0.9l-2,0.5l-2.2-8.3l2-0.5
					C377.8,255.2,378.3,255.2,378.8,255.4z M377.5,258.9l0.5-0.1c0.2,0,0.4-0.2,0.5-0.4c0.1-0.2,0.1-0.5,0-0.7l-0.1-0.5
					c0-0.2-0.2-0.4-0.3-0.6c-0.2-0.1-0.4-0.1-0.5-0.1l-0.6,0.2L377.5,258.9z M378.5,262.6l0.7-0.2c0.2,0,0.4-0.1,0.5-0.3
					c0.1-0.2,0.1-0.5,0-0.7l-0.2-0.7c0-0.3-0.2-0.5-0.4-0.7c-0.2-0.1-0.5-0.1-0.7-0.1l-0.6,0.2L378.5,262.6z"/>
				<path class="st2" d="M380.5,255c0.3-0.5,0.7-0.8,1.3-0.9c0.5-0.2,1.1-0.1,1.6,0.2s0.8,0.9,0.9,1.4l0.1,0.3l-1.2,0.3l-0.1-0.4
					c0-0.2-0.2-0.4-0.3-0.6c-0.2-0.1-0.4-0.1-0.5-0.1c-0.2,0-0.4,0.2-0.4,0.3c-0.1,0.2-0.1,0.4,0,0.7c0.1,0.3,0.3,0.6,0.5,0.8
					c0.3,0.3,0.7,0.5,1.1,0.7s0.7,0.4,0.9,0.5c0.3,0.2,0.5,0.4,0.7,0.7c0.2,0.3,0.4,0.6,0.5,1c0.2,0.5,0.2,1.1-0.1,1.7
					c-0.3,0.5-0.8,0.8-1.3,0.9c-0.5,0.2-1.1,0.1-1.6-0.2c-0.5-0.3-0.8-0.9-0.9-1.4l-0.1-0.5l1.2-0.3l0.2,0.6
					c0.1,0.5,0.4,0.7,0.9,0.6s0.6-0.4,0.5-1c-0.1-0.3-0.3-0.6-0.5-0.8c-0.3-0.3-0.7-0.5-1.1-0.7c-0.3-0.2-0.6-0.4-0.9-0.6
					s-0.5-0.4-0.7-0.7c-0.2-0.3-0.4-0.6-0.5-1C380.2,256.1,380.3,255.5,380.5,255z"/>
				<path class="st2" d="M389.9,258.8c0.2,0.5,0.1,1.1-0.1,1.7c-0.3,0.5-0.8,0.8-1.3,0.9c-0.5,0.2-1.1,0.1-1.6-0.2
					c-0.5-0.3-0.8-0.8-0.9-1.4l-1.1-4.3c-0.2-0.5-0.2-1.1,0.1-1.7c0.3-0.5,0.8-0.8,1.3-0.9c0.5-0.2,1.1-0.1,1.6,0.2s0.8,0.9,0.9,1.4
					l0.2,0.8l-1.2,0.3l-0.2-0.9c-0.1-0.5-0.4-0.8-0.9-0.6s-0.6,0.4-0.5,1l1.2,4.5c0.1,0.5,0.4,0.8,0.9,0.6s0.6-0.4,0.5-1l-0.3-1.2
					l1.2-0.3L389.9,258.8z"/>
				<path class="st2" d="M393.7,259.5c-0.1-0.2-0.1-0.4-0.2-0.6l-0.3-1.3c0-0.3-0.2-0.6-0.4-0.8c-0.2-0.1-0.5-0.2-0.7-0.1l-0.4,0.1
					l0.9,3.4l-1.3,0.3l-2.1-8.3l2-0.5c0.9-0.4,1.9,0,2.3,0.9c0.1,0.2,0.1,0.4,0.1,0.5l0.2,0.7c0.3,0.7,0.1,1.4-0.4,1.9
					c0.3,0,0.6,0.2,0.8,0.5c0.2,0.3,0.4,0.7,0.5,1.1l0.3,1.3c0.1,0.2,0.1,0.4,0.2,0.6c0.1,0.1,0.1,0.3,0.2,0.4l-1.3,0.4
					C393.9,259.7,393.8,259.6,393.7,259.5z M391.3,255.6l0.5-0.1c0.2,0,0.4-0.2,0.5-0.4s0.1-0.5,0-0.7l-0.2-0.8
					c0-0.2-0.1-0.4-0.3-0.6c-0.2-0.1-0.4-0.1-0.6-0.1l-0.6,0.2L391.3,255.6z"/>
				<path class="st2" d="M395.1,250.7l2.1,8.3l-1.3,0.3l-2.2-8.3L395.1,250.7z"/>
				<path class="st2" d="M399.6,250c0.4,0.3,0.7,0.8,0.8,1.3l0.1,0.3c0.1,0.4,0.1,0.7,0.1,1.1c-0.1,0.3-0.2,0.6-0.5,0.8
					c0.7,0.1,1.2,0.6,1.4,1.5l0.2,0.7c0.2,0.5,0.1,1.1-0.1,1.6c-0.3,0.5-0.8,0.8-1.3,0.9l-2,0.5l-2.2-8.2l2-0.5
					C398.5,249.7,399.1,249.8,399.6,250z M398.2,253.4l0.5-0.1c0.2,0,0.4-0.2,0.5-0.4s0.1-0.5,0-0.7l-0.1-0.5c0-0.2-0.2-0.4-0.3-0.6
					c-0.2-0.1-0.4-0.1-0.6-0.1l-0.6,0.2L398.2,253.4z M399.2,257.2l0.7-0.2c0.2,0,0.4-0.2,0.5-0.3c0.1-0.2,0.1-0.5,0-0.7l-0.2-0.7
					c0-0.3-0.2-0.5-0.4-0.7c-0.2-0.1-0.5-0.1-0.7-0.1l-0.6,0.1L399.2,257.2z"/>
				<path class="st2" d="M404.8,251.9l0.3,1.2l-1.8,0.5l0.6,2.4l2.2-0.6l0.3,1.2l-3.5,0.9l-2.1-8.3l3.5-0.9l0.3,1.2l-2.2,0.6
					l0.6,2.3L404.8,251.9z"/>
				<path class="st2" d="M407.2,247.5c0.5-0.2,1.1-0.1,1.6,0.1c0.5,0.3,0.8,0.8,0.9,1.4l1.1,4.2c0.2,0.5,0.2,1.1-0.1,1.6
					c-0.3,0.5-0.8,0.8-1.3,0.9l-2.1,0.5l-2.2-8.3L407.2,247.5z M408.3,254.8l0.7-0.2c0.2,0,0.4-0.2,0.5-0.3c0.1-0.2,0.1-0.4,0-0.7
					l-1.1-4.3c0-0.2-0.2-0.4-0.3-0.6c-0.2-0.1-0.4-0.1-0.5-0.1l-0.7,0.2L408.3,254.8z"/>
				<path class="st5" d="M313.8,373.9c0,0-12.1-28.2-6-62.5"/>
				<path class="st5" d="M284.2,404.4c0,0-24.5,7.5-27,13.1s11,0.9,11,0.9"/>
				<path class="st5" d="M299.3,288.6c0,0-22.6,22.4-37.7,28.4"/>
				<path class="st5" d="M225.2,282.5c0,0-4.1,30.2,11.2,36"/>
				<path class="st5" d="M181.7,343.6c0,0-0.1-39.6,7.8-51.9"/>
				<path class="st5" d="M178.8,303.2c0,0-2.2,24.6,2.8,32.6"/>
				<path class="st5" d="M162.6,349.5c0,0-17.2-5.9-20.8,1.4s10.2,0.8,10.2,0.8"/>
				<path class="st5" d="M172.9,375.2c0,0-16.9,9.5-17.8,15"/>
				<path class="st5" d="M200.5,348.9c0,0,32.3,48.8,50.1,44.4"/>
				<path class="st5" d="M222.6,417.4c0,0-25.3,18.6-29,17"/>
				<path class="st7" d="M400,338.1c1.7-1.4,2.8-2.3,3.2-2.6C402.8,335.8,401.7,336.8,400,338.1z"/>
			</g>
		</g>
		<g id="Camada_1_cópia">
			<g id="freepik--Character--inject-626_1_">
				<path class="st2" d="M359.4,469.7H183.3c-47.7,0-86.3-38.6-86.3-86.3V219c0-47.7,38.6-86.3,86.3-86.3h176.2
					c47.7,0,86.3,38.6,86.3,86.3v164.4C445.7,431,407.1,469.7,359.4,469.7z"/>
				<path class="st2" d="M185.7,433.8c0,0-11.9,8.1-16.7,7.5c-0.5,0-1-0.2-1.4-0.6c-3.1-3.2-5.6-8.9-5.6-8.9s1.5-2.1,6.1,3.4
					l2.9-2.7l-6-6.1c0,0,3.4-2.7,9.1,0.7c-0.2-0.4-3.9-8.5-1.1-19.5l-14-13.5l12.4-10.8l1-0.8c0,0,0.8,0.8,2,2s2.9,2.7,4.7,4.3
					c4.4,3.9,9.7,8,12,8C195.3,396.8,185.7,433.8,185.7,433.8z"/>
				<g>
					<g>
						<g>
							<g>
								<g>
									<g>
										<defs>
											<path id="SVGID_5_" d="M185.7,433.8c0,0-11.9,8.1-16.7,7.5c-0.5,0-1-0.2-1.4-0.6c-3.1-3.2-5.6-8.9-5.6-8.9
												s1.5-2.1,6.1,3.4l2.9-2.7l-6-6.1c0,0,3.4-2.7,9.1,0.7c-0.2-0.4-3.9-8.5-1.1-19.5l-14-13.5l12.4-10.8l1-0.8
												c0,0,0.8,0.8,2,2s2.9,2.7,4.7,4.3c4.4,3.9,9.7,8,12,8C195.3,396.8,185.7,433.8,185.7,433.8z"/>
										</defs>
										<clipPath id="SVGID_6_">
											<use xlink:href="#SVGID_5_"  style="overflow:visible;"/>
										</clipPath>
										<g class="st18">
											<path class="st19" d="M176.5,428.5c0,0-6.8,7-7.5,12.9c-0.5,0-1-0.2-1.4-0.6c-3.1-3.2-5.6-8.9-5.6-8.9s1.5-2.1,6.1,3.4
												l2.9-2.7l-6-6.1c0,0,3.4-2.7,9.1,0.7c-0.2-0.4-3.9-8.5-1.1-19.5l-14-13.5l12.4-10.8l3,1.1c1.2,1.2,2.9,2.7,4.7,4.3
												c-2.6,3.9-8.3,11.8-8.3,11.8l4.9,6.6C175.8,407.3,172.8,423.9,176.5,428.5z"/>
										</g>
									</g>
								</g>
							</g>
						</g>
					</g>
				</g>
				<path class="st20" d="M185.7,433.8c0,0-11.9,8.1-16.7,7.5c-0.5,0-1-0.2-1.4-0.6c-3.1-3.2-5.6-8.9-5.6-8.9s1.5-2.1,6.1,3.4
					l2.9-2.7l-6-6.1c0,0,3.4-2.7,9.1,0.7c-0.2-0.4-3.9-8.5-1.1-19.5l-14-13.5l12.4-10.8l1-0.8c0,0,0.8,0.8,2,2s2.9,2.7,4.7,4.3
					c4.4,3.9,9.7,8,12,8C195.3,396.8,185.7,433.8,185.7,433.8z"/>
				<path class="st5" d="M171,432.6c0.7-2,1.7-3.8,3.1-5.3"/>
				<path class="st8" d="M392.8,339.6c-1.9,2.7-4.1,5.2-6.7,7.3l0,0c-21.9,18.1-72.3,27-72.3,27s-1.7,2.5-4.3,6.1
					c-4.7,6.5-12.3,16.4-18.5,21.4l0,0c-2.6,2.1-5,3.3-6.8,3l9.5,34.9l4.2,15.2c0,0-43.5,19-117.8-2.7c0,0-0.9-9.7-0.2-11.8
					c0-0.1,0.1-0.2,0.1-0.3c0.8-1.4,1.7-2.6,2.9-3.7c0,0-0.4-6.2-0.6-12.6c-0.2-4-0.2-8.1,0.1-12.1c0.5-3.2,2.9-10.9,4.1-14.7
					l0.7-2.2l-3.7-34.6l-1.1-10l-0.1-0.5c0-0.1,0-0.1,0-0.2l-0.6-5.4l-19.1,5.8c0,0,1,2.2,2.4,5.4c2.5,5.8,6.2,14.5,7,18
					c0.1,0.3,0.1,0.6,0.2,0.8c1.8,5,8.5,9.6,8.5,9.6l-18.1,21.2l-5.4-3.7c-0.7,0.5-1.4,1-2.2,1.4c-3.5,1.9-10.9,4.7-19,0.4
					c-3.5-2-6.6-4.7-8.9-7.9c-14.2-18.4-20.4-33.5-18.4-51.2s81.5-72.2,97.3-71.6l23.5,5.2c0.5-0.4,1.9-1.5,2.9-1.5
					c4.3,0.2,4.4,5.2,4.4,5.2l52.6,8.5c0,0,5.5-2.7,6.4-2.7c1.4,0.1,2.6,0.9,3.3,2.1c0,0,13.6-8.2,18-6.3
					C331.7,288.5,403.4,323.4,392.8,339.6z"/>
				<path class="st7" d="M210.1,426c-6,6.6-14,10.9-22.8,12.4c-2.8,0.4-5.2,0.9-7.3,1.3c0.8-1.4,1.7-2.6,2.9-3.7
					c0,0-0.4-6.2-0.6-12.6C188.4,427.5,199.2,432.2,210.1,426z"/>
				<path class="st7" d="M186.4,396.6l0.7-2.2l-3.7-34.6c5.5,7.9,25.2,34.9,38.8,37.9C236.5,400.6,198.5,406,186.4,396.6z"/>
				<path class="st7" d="M293.6,439.3c-14.9-1.7-35.8-5.4-37.9-13.2c-3.3-12.1,12.6-19.4,35.3-24.7c-2.6,2.1-5,3.3-6.8,3
					L293.6,439.3z"/>
				<path class="st7" d="M386,346.9c-21.9,18.1-72.3,27-72.3,27s-1.7,2.5-4.3,6.1c-7.4-17.7-8.5-37.4-3.2-55.9c0,0,3.9,21,20,26
					c0,0-12.3-9.2-8-31.3c0,0,4.2,26,31.6,33.2C363.2,355.6,376.2,351.7,386,346.9z"/>
				<path class="st7" d="M182.3,349.2l-0.6-5.6l-19.1,5.8c0,0,1,2.2,2.4,5.4c-7.3-0.8-21.2,6-23.6-1.4c-2.9-8.9,15-5.9,15-5.9
					l16.9-9.9c-3.2-13.7,4.9-24,4.9-24l1.6,9.6c0.7-18.2,7.9-28.1,7.9-28.1C181.8,309.6,181.9,345,182.3,349.2z"/>
				<path class="st7" d="M180.8,383.3l-18.1,21.2l-5.4-3.7c-0.7,0.5-1.4,1-2.2,1.4c-3.5,1.9-10.9,4.7-19,0.4
					c5.9-8.1,18-20.1,32.4-24.7c-3.5,5.3-6.7,10.8-9.5,16.4l3.7,3.7C162.7,397.9,172,387.3,180.8,383.3z"/>
				<path class="st7" d="M224.7,290.1c0,1.9-1.2,23,14.2,28.6s29.1-3.9,29.1-3.9s-23.6,22.8-38,10.6S224.7,290.1,224.7,290.1z"/>
				<path class="st20" d="M180.1,451.8c0,0-0.8-9.7-0.2-11.8c0.5-1.7,3-4,3-4s-1.3-19.7-0.5-24.7c0.7-4.4,4.7-17,4.7-17l-5.4-50.7
					l-19.1,5.9c0,0,8.1,18,9.4,23.3s8.8,10.5,8.8,10.5l-18.1,21.1l-5.4-3.7c0,0-15.8,12.4-30.1-6.1s-20.4-33.5-18.4-51.2
					s81.6-72.2,97.3-71.6l23.5,5.2c0.5-0.4,1.9-1.5,2.9-1.5c4.3,0.2,4.4,5.2,4.4,5.2l52.6,8.5c0,0,5.5-2.7,6.4-2.7
					c1.4,0.1,2.6,0.9,3.3,2.1c0,0,13.6-8.1,18-6.3c14.4,6.2,86.1,41.1,75.5,57.3c-15.1,23-79,34.3-79,34.3s-21.2,32-29.6,30.5
					l13.7,50.1"/>
				<path class="st21" d="M337.2,343.1c24.1,15.9,43.6,13,58.8-7.5c0,0,12.7-16.4,11.8-34s-5.1-75.1-60.1-60.4
					c-9,2.4-30.2,30.7-31.9,38.5c-0.8,3.5-9.3,21.6-17.5,40.3"/>
				<path class="st22" d="M271.9,174.2c0,0,15.4-2.3,26.1,7.2c13.5,12.1,28.7,44.7,7.1,98.7c0,0-31.9-21.2-86.4-7
					c0,0,4.7-12.7-3.5-52.6C211.4,202.5,220.8,160.9,271.9,174.2z"/>
				<path class="st23" d="M248.6,309.7c22.8,3.7,46.9-21.5,46.9-21.5s-12.4-1.5-13.5-7.3c-3.5-18.3,10.7-41,10.7-41
					s-55.3,1.5-45.6,14c1.8,2.3,3.3,4.8,4.4,7.5c3.4,8.2,1,14.4-0.8,16c-0.1,0.1-0.3,0.2-0.4,0.3c-3.3,1.5-17.1-0.8-17.1-0.8
					S227.8,306.4,248.6,309.7z"/>
				<path class="st24" d="M287.7,295.2c0,0-10.5,4.2-25.9,3l-6.9,3.4"/>
				<path class="st24" d="M248,301l-0.5-4.5c0,0-11.3-3.5-14.9-10.3"/>
				<path class="st9" d="M250.8,277.4c16.9,4.4,24.9-17.3,24.9-17.3s-13.5-4-24.1,1.3C254.9,269.7,252.6,275.9,250.8,277.4z"/>
				<path class="st10" d="M293.8,228.5c4.1-23.1-0.5-50.8-35.6-48.5c-25.1,1.6-24.9,29.2-23.3,37.4c2.8,13.8-1.2,19.3,3.1,30.9
					c3.1,8.4,10.3,17.7,18.8,21.2c5.2,2.1,26.3-12.6,27.9-19.4"/>
				<path class="st5" d="M249.6,221.7c-0.2,2.6-0.5,9-6,13.8c-3.6,3.1,4.6,6.2,4.6,6.2"/>
				<path class="st5" d="M243.7,212.5c0,0-7.8-3.8-13,2.5"/>
				<path class="st5" d="M256.7,212c5.5-1.6,11.3-1.4,16.6,0.7"/>
				<path class="st22" d="M264.8,222.9c0.2,2.2,1.7,3.9,3.4,3.7s2.7-2.1,2.5-4.4s-1.7-3.9-3.4-3.7S264.5,220.7,264.8,222.9z"/>
				<path class="st5" d="M248.5,249c6.2-0.9,12.1-3,17.4-6.3c0,0,0.7,9.7-7.4,11.7c-6.2,1.6-8.6-5.6-8.6-5.6"/>
				<path class="st22" d="M271.4,188.8c0,0-2.2,27.4,22,37.3l11.3-26.3l-17.1-19l-25.8-7.5c-38.6,2.4-55.2,26.4-33.8,90.2
					C227.9,263.5,221.9,187.5,271.4,188.8z"/>
				<path class="st10" d="M288,227.2c-0.3-3.1,7.5-10.9,10.1-5.9c4.5,8.6,1.2,16-3.4,19c-2.1,1.3-4.7,3.8-6.6,1.4"/>
				<path class="st22" d="M241.2,224c0.2,2.2,1.8,3.9,3.4,3.7s2.7-2.1,2.5-4.4s-1.8-3.9-3.4-3.7S241,221.7,241.2,224z"/>
				<g class="st11">
					<path class="st25" d="M224.5,219.5c-0.3,1.9-0.5,3.7-0.6,5.6"/>
					<path class="st25" d="M267.4,183.8c-19.5-0.5-37.7,11.9-42,31.5"/>
					<path class="st25" d="M263.9,178.2c0,0-28.2-6.6-38.7,12.1"/>
					<path class="st25" d="M286.7,210.8c1.7,2.4,3.7,4.6,6.1,6.4"/>
					<path class="st25" d="M275.5,181.8c1.4,9,4.5,17.6,8.9,25.5"/>
					<path class="st25" d="M303.9,266.6c-0.5,2.2-1.1,4.5-1.8,6.7"/>
					<path class="st25" d="M302.2,229.4c4.6,10.1,4.3,22.8,2.4,33.5"/>
					<path class="st25" d="M298.9,247c0.5,7.8-2.4,15.4-8,20.9"/>
					<path class="st25" d="M285.9,185.1c4.8,6.5,8.4,13.4,13.9,19.4c5.9,6.2,11.7,13.4,12.8,22.1"/>
					<path class="st25" d="M279.1,178.4c1.4,0.9,2.6,2,3.8,3.1"/>
				</g>
				<path class="st13" d="M375.5,328.8c-0.6,0.1-1.1,0.2-1.7,0.3c-15.1,2.2-32.1-10.4-37.8-25.4c-4.5-11.9-0.6-25.4,1.6-31.1
					c0.7-1.8,1.2-2.9,1.2-2.9c9.1-13,62.1,12.5,62.8,26.5S391,325.4,375.5,328.8z"/>
				<path class="st2" d="M392.1,298c0,0-3,22.3-18.3,31c-15.1,2.2-32.1-10.4-37.8-25.4c-4.5-11.9-0.6-25.4,1.6-31.1l0,0
					C355.5,262.3,392.1,298,392.1,298z"/>
				<g>
					<g>
						<g>
							<g>
								<g>
									<g>
										<defs>
											<path id="SVGID_7_" d="M392.1,298c0,0-3,22.3-18.3,31c-15.1,2.2-32.1-10.4-37.8-25.4c-4.5-11.9-0.6-25.4,1.6-31.1l0,0
												C355.5,262.3,392.1,298,392.1,298z"/>
										</defs>
										<clipPath id="SVGID_8_">
											<use xlink:href="#SVGID_7_"  style="overflow:visible;"/>
										</clipPath>
										<g class="st26">
											<path class="st19" d="M392.1,298c0,0-3,22.3-18.3,31c-15.1,2.2-32.1-10.4-37.8-25.4c-4.5-11.9-0.6-25.4,1.6-31.1l0,0
												C355.5,262.3,392.1,298,392.1,298z"/>
										</g>
									</g>
								</g>
							</g>
						</g>
					</g>
				</g>
				<path class="st27" d="M392.1,298c0,0-3,22.3-18.3,31c-15.1,2.2-32.1-10.4-37.8-25.4c-4.5-11.9-0.6-25.4,1.6-31.1l0,0
					C355.5,262.3,392.1,298,392.1,298z"/>
				<path class="st24" d="M329.6,309.8c0,0,17.2,24.7,37.3,26.8s33-14.9,33.8-27.6"/>
				<path class="st23" d="M319.9,198.2c1.5-4.2,12.4-2.8,15.8,10.4s17,45.3,17,45.3s54-79.4,63.6-82.5s5.9,10.7-7.1,29.8
					c0,0,12.1-2.1,15.3,0s1.6,15,3.3,19.5c2.8,7.5-3.5,9.1-3.5,9.1c3.1,0.1,6.1,1.2,8.4,3.2c3.5,3.2,1.7,16.7,2.7,20.5
					c1,3.8-5.6,7-5.6,7s15.9,8.7,12.3,10.9c-6.1,3.7-9.5-0.1-9.5-0.1s-24.5,30.7-42.9,37.5s-54.3-20.3-58.2-35.1s0.8-13.9-2.2-38.5
					S319.9,198.2,319.9,198.2z"/>
				<path class="st23" d="M327.5,167.9l71.1-18.5c2.5-0.7,5.1,0.9,5.8,3.4L438,281.7c0.7,2.5-0.9,5.1-3.4,5.8L363.5,306
					c-2.5,0.7-5.1-0.9-5.8-3.4l-33.6-128.9C323.5,171.2,325,168.6,327.5,167.9z"/>
				<path class="st8" d="M357.9,164.2c0.2,0.6-0.2,1.2-0.8,1.4c-0.6,0.2-1.2-0.2-1.4-0.8c-0.2-0.6,0.2-1.2,0.8-1.4l0,0
					C357.1,163.2,357.7,163.6,357.9,164.2z"/>
				<path class="st8" d="M372.5,160.4c0.1,0.4-0.1,0.8-0.5,0.9l0,0c-0.4,0.1-0.8-0.1-0.9-0.5s0.1-0.8,0.5-0.9S372.4,160,372.5,160.4
					z"/>
				<path class="st15" d="M360.4,164.4l8.6-2.2c0.2,0,0.3,0.1,0.4,0.2v0.2c0,0.2-0.1,0.3-0.2,0.4l-8.6,2.2c-0.2,0-0.3-0.1-0.4-0.2
					v-0.2C360.2,164.6,360.3,164.5,360.4,164.4z"/>
				<path class="st28" d="M402.2,154.1L435.6,282c0.4,1.5-0.5,3-2,3.4l-70.2,18.3c-1.5,0.4-3-0.5-3.4-2l-33.3-127.9
					c-0.4-1.5,0.5-3,2-3.4l14.4-3.8c0.9-0.2,1.9,0.1,2.5,0.9l1,1.5c0.6,0.8,1.6,1.2,2.5,0.9l31.6-8.2c0.9-0.2,1.6-1,1.7-2l0.2-1.8
					c0.1-1,0.8-1.8,1.7-2l14.4-3.8C400.3,151.8,401.8,152.6,402.2,154.1z"/>
				<circle class="st23" cx="381.1" cy="227.6" r="37.4"/>
				<polyline class="st29" points="388.9,251.2 373.9,200.5 351.7,234.7 410.9,218.4 				"/>
				<g>
					<path class="st20" d="M373.9,200.5c1-0.3,1.6-1.5,1.3-2.5l0,0c-0.3-1-1.5-1.6-2.5-1.3s-1.6,1.5-1.3,2.5
						C371.7,200.3,372.8,200.9,373.9,200.5z"/>
					<path class="st20" d="M349.3,233.3c-1.1,0.3-1.7,1.4-1.4,2.4c0.3,1.1,1.4,1.7,2.4,1.4l0,0c1.1-0.3,1.7-1.4,1.4-2.4
						S350.4,233,349.3,233.3z"/>
					<path class="st20" d="M412.3,216c-1.1,0.3-1.7,1.4-1.4,2.5c0.3,1.1,1.4,1.7,2.5,1.4l0,0c1-0.3,1.6-1.4,1.3-2.5
						C414.5,216.3,413.4,215.7,412.3,216z"/>
					<path class="st20" d="M388.9,251.2c-1.1,0.3-1.7,1.4-1.4,2.5l0,0l0,0c0.3,1,1.4,1.6,2.5,1.3s1.7-1.4,1.4-2.5
						C391.1,251.5,390,250.9,388.9,251.2z"/>
				</g>
				<path class="st24" d="M313.8,373.9c0,0-12.1-28.2-6-62.5"/>
				<path class="st24" d="M284.2,404.4c0,0-24.5,7.5-27,13.1s11,0.9,11,0.9"/>
				<path class="st24" d="M299.3,288.6c0,0-22.6,22.4-37.7,28.4"/>
				<path class="st24" d="M225.2,282.5c0,0-4.1,30.2,11.2,36"/>
				<path class="st24" d="M181.7,343.6c0,0-0.1-39.6,7.8-51.9"/>
				<path class="st20" d="M178.8,303.2c0,0-2.2,24.6,2.8,32.6"/>
				<path class="st20" d="M162.6,349.5c0,0-17.2-5.9-20.8,1.4s10.2,0.8,10.2,0.8"/>
				<path class="st20" d="M172.9,375.2c0,0-16.9,9.5-17.8,15"/>
				<path class="st20" d="M200.5,348.9c0,0,32.3,48.8,50.1,44.4"/>
				<path class="st20" d="M222.6,417.4c0,0-25.3,18.6-29,17"/>
				<path class="st7" d="M400,338.1c1.7-1.4,2.8-2.3,3.2-2.6C402.8,335.8,401.7,336.8,400,338.1z"/>
				<polygon class="st20" points="373.2,242.1 390.6,211.2 366.2,217.8 397.5,235.5 				"/>
				<circle class="st20" cx="381.7" cy="226.7" r="17.1"/>
				<polygon class="st20" points="366.2,217.8 373.2,242.1 397.5,235.5 390.6,211.2 				"/>
			</g>
			<line class="st30" x1="388.9" y1="251.2" x2="410.8" y2="218.7"/>
		</g>
	</g>
</g>
<g id="Camada_1">
	<g id="Camada_3">
		<g>
			<circle class="st2" cx="244.9" cy="250.9" r="223.3"/>
			<path d="M244.9,476.7c-60.3,0-117-23.5-159.7-66.1s-66.1-99.4-66.1-159.7s23.5-117,66.1-159.7s99.4-66.1,159.7-66.1
				s117,23.5,159.7,66.1c42.6,42.6,66.1,99.4,66.1,159.7s-23.5,117-66.1,159.7C361.9,453.2,305.2,476.7,244.9,476.7z M244.9,30.1
				c-121.7,0-220.8,99.1-220.8,220.8c0,121.8,99.1,220.8,220.8,220.8s220.8-99.1,220.8-220.8S366.6,30.1,244.9,30.1z"/>
		</g>
		<g>
			<g>
				<path class="st31" d="M46.7,249.8"/>
			</g>
			<g>
				<path class="st31" d="M46.7,249.8"/>
			</g>
			<g>
				<path class="st31" d="M46.7,249.8"/>
			</g>
			<g>
				<polygon class="st6" points="418.3,249.8 73.6,249.8 246,77.5 246,422.2 				"/>
				<path d="M246,424.7c-0.3,0-0.6-0.1-1-0.2c-0.9-0.4-1.5-1.3-1.5-2.3V252.3H73.6c-1,0-1.9-0.6-2.3-1.5s-0.2-2,0.5-2.7L244.2,75.7
					c0.7-0.7,1.8-0.9,2.7-0.5s1.5,1.3,1.5,2.3v169.8h169.8c1,0,1.9,0.6,2.3,1.5s0.2,2-0.5,2.7L247.8,424
					C247.3,424.4,246.7,424.7,246,424.7z M248.5,252.3v163.9l163.8-163.9L248.5,252.3L248.5,252.3z M79.6,247.3h163.9V83.5
					L79.6,247.3z"/>
			</g>
			<g>
				<path d="M246,77.8c-6.2,0-11.2-5-11.2-11.2s5-11.2,11.2-11.2s11.2,5,11.2,11.2S252.2,77.8,246,77.8z M246,60.4
					c-3.4,0-6.2,2.8-6.2,6.2c0,3.4,2.8,6.2,6.2,6.2s6.2-2.8,6.2-6.2C252.2,63.2,249.4,60.4,246,60.4z"/>
			</g>
			<g>
				<path d="M246,442.1c-6.2,0-11.2-5-11.2-11.2s5-11.2,11.2-11.2s11.2,5,11.2,11.2S252.2,442.1,246,442.1z M246,424.7
					c-3.4,0-6.2,2.8-6.2,6.2c0,3.4,2.8,6.2,6.2,6.2s6.2-2.8,6.2-6.2S249.4,424.7,246,424.7z"/>
			</g>
			<g>
				<path d="M427,261c-6.2,0-11.2-5-11.2-11.2s5-11.2,11.2-11.2s11.2,5,11.2,11.2S433.2,261,427,261z M427,243.6
					c-3.4,0-6.2,2.8-6.2,6.2s2.8,6.2,6.2,6.2s6.2-2.8,6.2-6.2S430.4,243.6,427,243.6z"/>
			</g>
			<g>
				<path d="M64.9,261c-6.2,0-11.2-5-11.2-11.2s5-11.2,11.2-11.2s11.2,5,11.2,11.2S71.1,261,64.9,261z M64.9,243.6
					c-3.4,0-6.2,2.8-6.2,6.2s2.8,6.2,6.2,6.2s6.2-2.8,6.2-6.2S68.3,243.6,64.9,243.6z"/>
			</g>
			<g>
				<path d="M329.5,333.3h-167v-167h167V333.3z M167.5,328.3h157v-157h-157V328.3z"/>
			</g>
			<g>
				<path d="M246,365c-63.5,0-115.2-51.7-115.2-115.2S182.5,134.6,246,134.6s115.2,51.7,115.2,115.2S309.5,365,246,365z M246,139.6
					c-60.8,0-110.2,49.4-110.2,110.2S185.2,360,246,360s110.2-49.4,110.2-110.2S306.8,139.6,246,139.6z"/>
			</g>
			<g>
				<path d="M327,333.3c-0.7,0-1.3-0.3-1.8-0.7L246,253.3l-79.2,79.2c-0.7,0.7-1.8,0.9-2.7,0.5s-1.5-1.3-1.5-2.3v-162
					c0-1,0.6-1.9,1.5-2.3c0.9-0.4,2-0.2,2.7,0.5l79.2,79.2l79.2-79.2c0.7-0.7,1.8-0.9,2.7-0.5c0.9,0.4,1.5,1.3,1.5,2.3v162
					c0,1-0.6,1.9-1.5,2.3C327.6,333.2,327.3,333.3,327,333.3z M249.5,249.8l75,75v-150L249.5,249.8z M167.5,174.8v149.9l75-75
					L167.5,174.8z"/>
			</g>
		</g>
	</g>
</g>
</svg>
